<?xml version="1.0" encoding="UTF-8" standalone="no"?><!-- Created with Inkscape (http://www.inkscape.org/) --><svg xmlns:dc="http://purl.org/dc/elements/1.1/" xmlns:cc="http://creativecommons.org/ns#" xmlns:rdf="http://www.w3.org/1999/02/22-rdf-syntax-ns#" xmlns:svg="http://www.w3.org/2000/svg" xmlns="http://www.w3.org/2000/svg" version="1.1" width="128" height="128" id="svg10210" viewBox="-6.1122055 0 76.003937 76.003937"><defs id="defs10212" /><metadata id="metadata10215"><rdf:RDF><cc:Work rdf:about=""><dc:format>image/svg+xml</dc:format><dc:type rdf:resource="http://purl.org/dc/dcmitype/StillImage" /><dc:title></dc:title></cc:Work></rdf:RDF></metadata><g transform="translate(-423.18546,-428.43088)" id="layer1"><g transform="matrix(0.03543307,0,0,0.03543307,226.42562,-47.364383)" id="g590"><g id="id101"><path d="m 5553,15440 0,-1827 c 0,-103 82,-185 185,-185 l 0,0 742,0 c 103,0 185,82 185,185 l 0,0 0,1827 -1112,0 z" id="path593" style="fill:#ffffff;stroke:none" /></g></g><g transform="matrix(0.03543307,0,0,0.03543307,226.42562,-47.364383)" id="g595"><g id="id102"><path d="m 6480,13508 -743,0 c -58,0 -105,47 -105,105 l 0,0 0,1748 954,0 0,-1748 c 0,-58 -48,-105 -106,-105 z m -79,1641 -584,0 0,-79 584,0 0,79 z m 0,-238 -584,0 0,-80 584,0 0,80 z m 0,-1086 -584,0 0,-79 584,0 0,79 z" id="path598" style="fill:#515050;stroke:none" /></g></g><g transform="matrix(0.03543307,0,0,0.03543307,226.42562,-47.364383)" id="g600"><g id="id103"><path d="m 6294,15573 c -74,0 -132,-58 -132,-132 l 0,0 0,-716 c 0,-74 58,-132 132,-132 l 0,0 927,0 c 74,0 132,58 132,132 l 0,0 0,716 c 0,74 -58,132 -132,132 l 0,0 -927,0 z" id="path603" style="fill:#ffffff;stroke:none" /></g></g><g transform="matrix(0.03543307,0,0,0.03543307,226.42562,-47.364383)" id="g605"><g id="id104"><path d="m 7221,14672 -928,0 c -31,0 -52,21 -52,52 l 0,0 0,716 c 0,32 21,53 52,53 l 0,0 928,0 c 32,0 53,-21 53,-53 l 0,0 0,-716 c 0,-31 -21,-52 -53,-52 z m 0,768 -928,0 0,-610 928,0 0,610 z" id="path608" style="fill:#2072b8;stroke:none" /></g></g><g transform="matrix(0.03543307,0,0,0.03543307,226.42562,-47.364383)" id="g610"><g id="id105"><path d="m 7167,14779 54,0 0,-54 -54,0 0,54 z" id="path613" style="fill:#ffffff;stroke:none" /></g></g><g transform="matrix(0.03543307,0,0,0.03543307,226.42562,-47.364383)" id="g615"><g id="id106"><path d="m 7061,14779 54,0 0,-54 -54,0 0,54 z" id="path618" style="fill:#ffffff;stroke:none" /></g></g><g transform="matrix(0.03543307,0,0,0.03543307,226.42562,-47.364383)" id="g620"><g id="id107"><path d="m 6955,14779 54,0 0,-54 -54,0 0,54 z" id="path623" style="fill:#ffffff;stroke:none" /></g></g></g></svg>
