<?xml version="1.0" encoding="UTF-8" standalone="no"?><!-- Created with Inkscape (http://www.inkscape.org/) --><svg xmlns:dc="http://purl.org/dc/elements/1.1/" xmlns:cc="http://creativecommons.org/ns#" xmlns:rdf="http://www.w3.org/1999/02/22-rdf-syntax-ns#" xmlns:svg="http://www.w3.org/2000/svg" xmlns="http://www.w3.org/2000/svg" version="1.1" width="128" height="128" id="svg10210" viewBox="-8.4862215 0 75.968506 75.968506"><defs id="defs10212" /><metadata id="metadata10215"><rdf:RDF><cc:Work rdf:about=""><dc:format>image/svg+xml</dc:format><dc:type rdf:resource="http://purl.org/dc/dcmitype/StillImage" /><dc:title></dc:title></cc:Work></rdf:RDF></metadata><g transform="translate(-428.28951,-406.3572)" id="layer1"><g transform="matrix(0.03543307,0,0,0.03543307,142.947,-69.43806)" id="g695"><g id="id122"><path d="m 8053,15440 0,-1827 c 0,-103 82,-185 185,-185 l 0,0 742,0 c 103,0 185,82 185,185 l 0,0 0,1827 -1112,0 z" id="path698" style="fill:#ffffff;stroke:none" /></g></g><g transform="matrix(0.03543307,0,0,0.03543307,142.947,-69.43806)" id="g700"><g id="id123"><path d="m 8980,13508 -743,0 c -58,0 -105,47 -105,105 l 0,0 0,1748 954,0 0,-1748 c 0,-58 -48,-105 -106,-105 z m -79,1641 -584,0 0,-79 584,0 0,79 z m 0,-238 -584,0 0,-80 584,0 0,80 z m 0,-1086 -584,0 0,-79 584,0 0,79 z" id="path703" style="fill:#505150;stroke:none" /></g></g><g transform="matrix(0.03543307,0,0,0.03543307,142.947,-69.43806)" id="g705"><g id="id124"><path d="m 9718,14632 c 0,-149 -249,-201 -464,-201 l 0,0 c -214,0 -460,52 -460,201 l 0,0 0,23 0,660 0,35 0,2 c 13,140 177,220 460,220 l 0,0 c 287,0 451,-77 461,-220 l 0,0 0,-2 0,-37 0,-650 3,-31 z" id="path708" style="fill:#ffffff;stroke:none" /></g></g><g transform="matrix(0.03543307,0,0,0.03543307,142.947,-69.43806)" id="g710"><g id="id125"><path d="m 9257,14806 c -152,0 -305,-26 -384,-84 l 0,0 0,591 0,31 c 13,135 285,146 381,146 l 0,0 c 96,0 371,-11 382,-146 l 0,0 0,-31 0,-589 c -75,56 -228,82 -379,82 z" id="path713" style="fill:#2072b8;stroke:none" /></g></g><g transform="matrix(0.03543307,0,0,0.03543307,142.947,-69.43806)" id="g715"><g id="id126"><path d="m 9640,14632 0,0 c 0,23 -16,42 -51,61 -36,20 -80,34 -141,45 -61,11 -121,16 -191,16 -71,0 -131,-5 -192,-16 -61,-11 -105,-25 -141,-45 -35,-19 -51,-38 -51,-61 0,-22 16,-41 51,-60 36,-20 80,-34 141,-45 61,-11 120,-16 190,-16 l 0,0 c 1,0 1,0 2,0 70,0 130,5 191,16 61,11 105,25 141,45 35,19 51,38 51,60 z" id="path718" style="fill:#2072b8;stroke:none" /></g></g></g></svg>
