<?xml version="1.0" encoding="UTF-8" standalone="no"?><!-- Created with Inkscape (http://www.inkscape.org/) --><svg xmlns:dc="http://purl.org/dc/elements/1.1/" xmlns:cc="http://creativecommons.org/ns#" xmlns:rdf="http://www.w3.org/1999/02/22-rdf-syntax-ns#" xmlns:svg="http://www.w3.org/2000/svg" xmlns="http://www.w3.org/2000/svg" xmlns:xlink="http://www.w3.org/1999/xlink" version="1.1" width="128" height="128" id="svg10210" viewBox="-6.253518 0 106.30977 106.30977"><defs id="defs10212"><linearGradient x1="35519" y1="20140" x2="35519" y2="19948" id="linearGradient8241" xlink:href="#gradient1" gradientUnits="userSpaceOnUse" /><linearGradient x1="35519" y1="20140" x2="35519" y2="19948" id="gradient1" gradientUnits="userSpaceOnUse"><stop id="stop396" style="stop-color:#ffffff;stop-opacity:1" offset="0" /><stop id="stop398" style="stop-color:#ffffff;stop-opacity:1" offset="1" /></linearGradient><linearGradient x1="35134" y1="20206" x2="35134" y2="19948" id="linearGradient8243" xlink:href="#gradient2" gradientUnits="userSpaceOnUse" /><linearGradient x1="35134" y1="20206" x2="35134" y2="19948" id="gradient2" gradientUnits="userSpaceOnUse"><stop id="stop417" style="stop-color:#ffffff;stop-opacity:1" offset="0" /><stop id="stop419" style="stop-color:#ffffff;stop-opacity:1" offset="1" /></linearGradient><linearGradient x1="35159" y1="20622" x2="35159" y2="20430" id="linearGradient8245" xlink:href="#gradient3" gradientUnits="userSpaceOnUse" /><linearGradient x1="35159" y1="20622" x2="35159" y2="20430" id="gradient3" gradientUnits="userSpaceOnUse"><stop id="stop438" style="stop-color:#ffffff;stop-opacity:1" offset="0" /><stop id="stop440" style="stop-color:#ffffff;stop-opacity:1" offset="1" /></linearGradient><pattern patternUnits="userSpaceOnUse" height="259" width="193" y="20298" x="35518" id="pattern1"><g id="g459" transform="translate(-35518,-20298)"><path id="path461" d="M 35517,20297 L 35711,20297 35711,20557 35517,20557 35517,20297 Z" stroke="none" fill="rgb(255,255,255)" /></g></pattern></defs><metadata id="metadata10215"><rdf:RDF><cc:Work rdf:about=""><dc:format>image/svg+xml</dc:format><dc:type rdf:resource="http://purl.org/dc/dcmitype/StillImage" /><dc:title></dc:title></cc:Work></rdf:RDF></metadata><g transform="translate(-616.47952,-243.23008)" id="layer1"><g transform="translate(614.60347,241.35403)" id="g4565"><path d="m 1.8760546,100.6816 0,-86.298514 c 0,-4.8464749 3.9084472,-8.7549221 8.7549214,-8.7549221 l 35.019687,0 c 4.924643,0 8.754922,3.9084472 8.754922,8.7549221 l 0,86.298514 -52.5295304,0 z" id="path4567" style="fill:#ffffff;fill-opacity:1;fill-rule:evenodd;stroke:none" /><path d="m 45.650663,9.3802732 -35.019687,0 c -2.7359127,0 -5.0028121,2.2668998 -5.0028121,5.0028128 l 0,82.546404 45.0253111,0 0,-82.546404 c 0,-2.735913 -2.18873,-5.0028128 -5.002812,-5.0028128 z m -3.752109,77.5435918 -27.515468,0 0,-3.752109 27.515468,0 0,3.752109 z m 0,-11.256328 -27.515468,0 0,-3.752109 27.515468,0 0,3.752109 z m 0,-51.278827 -27.515468,0 0,-3.752109 27.515468,0 0,3.752109 z" id="path4569" style="fill:#505050;fill-opacity:1;fill-rule:evenodd;stroke:none" /><path d="m 31.892929,61.909803 0,46.276017 56.281639,0 0,-46.276017 -56.281639,0 z" id="path4571" style="fill:#ffffff;fill-opacity:1;fill-rule:evenodd;stroke:none" /><path d="m 35.645038,65.661913 0,38.771797 48.777421,0 0,-38.771797 -48.777421,0 z m 46.276015,36.270387 -43.774609,0 0,-33.768981 43.774609,0 0,33.768981 z" id="path4573" style="fill:#505050;fill-opacity:1;fill-rule:evenodd;stroke:none" /><path d="m 71.915428,71.915428 0,7.504219 6.253516,0 0,-7.504219 -6.253516,0 z" id="path4575" style="fill:#505050;fill-opacity:1;fill-rule:evenodd;stroke:none" /><path d="m 45.650663,85.673162 0,2.501406 18.760546,0 0,-2.501406 -18.760546,0 z" id="path4577" style="fill:#505050;fill-opacity:1;fill-rule:evenodd;stroke:none" /><path d="m 45.650663,91.926678 0,2.501406 25.014062,0 0,-2.501406 -25.014062,0 z" id="path4579" style="fill:#505050;fill-opacity:1;fill-rule:evenodd;stroke:none" /><path d="m 54.405585,1.8760546 0,41.2732024 41.273202,0 0,-41.2732024 -41.273202,0 z" id="path4581" style="fill:#ffffff;fill-opacity:1;fill-rule:evenodd;stroke:none" /><path d="m 58.157694,5.6281639 0,33.7689841 33.768984,0 0,-33.7689841 -33.768984,0 z" id="path4583" style="fill:#f79421;fill-opacity:1;fill-rule:evenodd;stroke:none" /><path d="m 71.290076,10.005625 0,12.507031 15.008438,0 0,-12.507031 -15.008438,0 z" id="path4585" style="fill:#f79421;fill-opacity:1;fill-rule:evenodd;stroke:none" /><path d="m 62.535155,10.005625 0,15.008437 12.507031,0 0,-15.008437 -12.507031,0 z" id="path4589" style="fill:#f79421;fill-opacity:1;fill-rule:evenodd;stroke:none" /><path d="m 62.535155,22.512656 0,12.507031 15.008437,0 0,-12.507031 -15.008437,0 z" id="path4593" style="fill:#f79421;fill-opacity:1;fill-rule:evenodd;stroke:none" /><path d="m 64.958392,13.445058 0,4.846475 c 0,0.625351 0,0.625351 0.390845,1.016196 l 2.814082,2.579575 c 2.892251,2.2669 4.064785,2.501406 4.690136,2.657744 0.234507,0 0.859859,-0.390844 0.859859,-0.390844 l 0.07817,-0.07817 C 73.556976,23.919697 73.322469,23.919697 72.853455,23.68519 72.071766,23.294345 71.837259,22.9035 71.05557,22.434487 c -0.859859,-0.78169 -1.094366,-1.016196 -1.719717,-1.797886 -0.859858,-0.859858 -1.407041,-1.719717 -1.407041,-1.719717 0,0 0,-3.361264 0,-3.361264 0,0 0,-0.156338 0,-0.156338 0,0 3.361264,0 3.361264,0 0,0 1.797886,1.172534 1.876055,1.172534 0,0 0.938027,-1.563379 0.78169,-1.641548 l -2.032393,-2.266899 c -0.07817,-0.156338 -0.312676,-0.234507 -0.469014,-0.234507 l -5.393657,0 c -0.859858,0.07817 -1.094365,0.390845 -1.094365,1.016196 z" id="path4591" style="fill:#ffffff;fill-opacity:1;stroke:#f2f2f2;stroke-width:0.31267577px;stroke-linecap:round;stroke-linejoin:round;stroke-opacity:1;stroke-dasharray:none" /><path d="m 84.34429,12.428862 -4.924643,0 c -0.625352,0 -0.625352,0 -0.938028,0.390845 l -2.501406,2.814082 c -2.266899,3.048589 -2.501406,4.064785 -2.657744,4.690136 0,0.234507 0.390845,0.859859 0.390845,0.859859 l 0.07817,0.07817 c 0.156338,-0.312676 0.156338,-0.469014 0.390844,-0.938028 0.390845,-0.781689 0.78169,-1.016196 1.250704,-1.797885 0.781689,-0.859859 1.016196,-1.094366 1.797885,-1.719717 0.859859,-0.859859 1.719717,-1.407041 1.719717,-1.407041 0,0 3.283096,0 3.283096,0 0,0 0.07817,0 0.07817,0 0,0 0,3.361264 0,3.361264 0,0 -1.094366,1.797886 -1.094366,1.876055 0,0 1.48521,0.938027 1.641548,0.78169 l 2.188731,-2.032393 c 0.156337,-0.07817 0.312675,-0.312676 0.312675,-0.469014 l 0,-5.471826 c -0.15634,-0.78169 -0.390846,-1.016197 -1.016198,-1.016197 z" id="path4587" style="fill:#ffffff;fill-opacity:1;stroke:#f2f2f2;stroke-width:0.31267577px;stroke-linecap:round;stroke-linejoin:round;stroke-opacity:1;stroke-dasharray:none" /><path d="m 85.360486,31.81476 0,-4.924643 c 0,-0.625352 0,-0.625352 -0.390844,-0.938028 l -2.892251,-2.657744 c -2.892251,-2.266899 -3.986616,-2.501406 -4.611968,-2.657744 -0.234507,0 -0.859858,0.390845 -0.859858,0.390845 l -0.156338,0.156338 c 0.234507,0.07817 0.469013,0.07817 1.016196,0.390844 0.703521,0.312676 1.016196,0.703521 1.719717,1.250704 0.859858,0.70352 1.172534,0.938027 1.797885,1.719716 0.859859,0.859859 1.328873,1.719717 1.328873,1.719717 0,0 0,3.439434 0,3.439434 0,0 0,0.07817 0,0.07817 0,0 -3.361265,0 -3.361265,0 0,0 -1.719717,-1.094365 -1.876055,-1.094365 0,0 -0.859858,1.48521 -0.781689,1.641548 l 2.032392,2.188731 c 0.156338,0.156337 0.390845,0.312675 0.469014,0.312675 l 5.393657,0 c 0.78169,0 1.172534,-0.390844 1.172534,-1.016196 z" id="path4597" style="fill:#ffffff;fill-opacity:1;stroke:#f2f2f2;stroke-width:0.31267577px;stroke-linecap:round;stroke-linejoin:round;stroke-opacity:1;stroke-dasharray:none" /><path d="m 65.661913,32.830956 4.924643,0 c 0.625352,0 0.625352,0 1.016196,-0.390844 l 2.579575,-2.892251 c 2.2669,-2.97042 2.501407,-3.986616 2.657744,-4.611968 0,-0.234507 -0.390844,-0.859858 -0.390844,-0.859858 l -0.156338,-0.156338 c -0.07817,0.234507 -0.07817,0.469013 -0.312676,1.016196 -0.390845,0.70352 -0.781689,1.016196 -1.250703,1.719717 -0.781689,0.859858 -1.016196,1.172534 -1.797886,1.797885 -0.859858,0.859859 -1.719716,1.328872 -1.719716,1.328872 0,0 -3.283096,0 -3.283096,0 0,0 -0.07817,0 -0.07817,0 0,0 0,-3.361264 0,-3.361264 0,0 1.094365,-1.719717 1.094365,-1.876055 0,0 -1.48521,-0.859858 -1.641548,-0.781689 l -2.266899,2.032392 c -0.07817,0.156338 -0.234507,0.390845 -0.234507,0.469014 l 0,5.628164 c 0,0.625352 0.234507,0.938027 0.859859,0.938027 z" id="path4595" style="fill:#ffffff;fill-opacity:1;stroke:#f2f2f2;stroke-width:0.31267577px;stroke-linecap:round;stroke-linejoin:round;stroke-opacity:1;stroke-dasharray:none" /></g></g></svg>
