<?xml version="1.0" encoding="UTF-8" standalone="no"?><!-- Created with Inkscape (http://www.inkscape.org/) --><svg xmlns:dc="http://purl.org/dc/elements/1.1/" xmlns:cc="http://creativecommons.org/ns#" xmlns:rdf="http://www.w3.org/1999/02/22-rdf-syntax-ns#" xmlns:svg="http://www.w3.org/2000/svg" xmlns="http://www.w3.org/2000/svg" version="1.1" width="128" height="128" id="svg10210" viewBox="-7.0334665 0 75.968506 75.968506"><defs id="defs10212" /><metadata id="metadata10215"><rdf:RDF><cc:Work rdf:about=""><dc:format>image/svg+xml</dc:format><dc:type rdf:resource="http://purl.org/dc/dcmitype/StillImage" /><dc:title></dc:title></cc:Work></rdf:RDF></metadata><g transform="translate(-427.83478,-362.08217)" id="layer1"><g transform="matrix(0.03543307,0,0,0.03543307,43.315106,-27.681602)" id="g316"><g id="id55"><path d="m 10852,13012 0,-1827 c 0,-103 82,-185 185,-185 l 0,0 742,0 c 103,0 185,82 185,185 l 0,0 0,1827 -1112,0 z" id="path319" style="fill:#ffffff;stroke:none" /></g></g><g transform="matrix(0.03543307,0,0,0.03543307,43.315106,-27.681602)" id="g321"><g id="id56"><path d="m 11779,11079 -743,0 c -58,0 -105,47 -105,105 l 0,0 0,1748 954,0 0,-1748 c 0,-58 -48,-105 -106,-105 z m -79,1641 -584,0 0,-79 584,0 0,79 z m 0,-238 -584,0 0,-80 584,0 0,80 z m 0,-1086 -584,0 0,-79 584,0 0,79 z" id="path324" style="fill:#515050;stroke:none" /></g></g><g transform="matrix(0.03543307,0,0,0.03543307,43.315106,-27.681602)" id="g326"><g id="id57"><path d="m 12456,12032 -251,0 c -58,0 -93,31 -124,60 l 0,0 -139,127 -392,0 c -79,0 -142,64 -142,143 l 0,0 0,782 1191,0 0,-821 0,-104 0,-37 c 0,-82 -66,-150 -143,-150 z" id="path329" style="fill:#ffffff;stroke:none" /></g></g><g transform="matrix(0.03543307,0,0,0.03543307,43.315106,-27.681602)" id="g331"><g id="id58"><path d="m 12204,12111 c -24,0 -43,10 -69,39 l 0,0 -100,94 485,0 0,-64 c 0,-35 -27,-69 -64,-69 l 0,0 -252,0 z" id="path334" style="fill:#515150;stroke:none" /></g></g><g transform="matrix(0.03543307,0,0,0.03543307,43.315106,-27.681602)" id="g336"><g id="id59"><path d="m 11550,12298 c -34,0 -63,29 -63,64 l 0,0 0,702 1033,0 0,-657 0,-48 0,-63 -970,0 0,2 z" id="path339" style="fill:#515150;stroke:none" /></g></g></g></svg>
