<?xml version="1.0" encoding="UTF-8" standalone="no"?><svg fill-opacity="1" color-rendering="auto" color-interpolation="auto" text-rendering="auto" stroke="#000000" stroke-linecap="square" width="128" stroke-miterlimit="10" shape-rendering="auto" stroke-opacity="1" fill="#000000" stroke-dasharray="none" font-weight="normal" stroke-width="1" height="128" font-family="Dialog" font-style="normal" stroke-linejoin="miter" font-size="12px" stroke-dashoffset="0" image-rendering="auto" version="1.1" id="svg246" sodipodi:docname="serveur_carto3.svg" inkscape:version="1.2.2 (732a01da63, 2022-12-09)" xmlns:inkscape="http://www.inkscape.org/namespaces/inkscape" xmlns:sodipodi="http://sodipodi.sourceforge.net/DTD/sodipodi-0.dtd" xmlns="http://www.w3.org/2000/svg" xmlns:svg="http://www.w3.org/2000/svg" viewBox="-10.5585935 0 69.189651 69.189651"><sodipodi:namedview id="namedview248" pagecolor="#ffffff" bordercolor="#000000" borderopacity="0.25" inkscape:showpageshadow="2" inkscape:pageopacity="0.0" inkscape:pagecheckerboard="0" inkscape:deskcolor="#d1d1d1" showgrid="false" inkscape:zoom="3.8853211" inkscape:cx="-2.1877214" inkscape:cy="72.323495" inkscape:window-width="1920" inkscape:window-height="1027" inkscape:window-x="-8" inkscape:window-y="-8" inkscape:window-maximized="1" inkscape:current-layer="svg246" /><!--Generated by ySVG 2.6--><defs id="genericDefs"><defs id="svg2.defs1220" /><clipPath clipPathUnits="userSpaceOnUse" id="clipPath678"><g id="g684" transform="matrix(0.26458333,0,0,0.26458333,47.536335,29.543983)"><g id="g682" transform="scale(0.26458333)"><path d="M -0.0043027,-0.00210346 H 91.007416 V 109.00327 H -0.0043027 Z" id="path680" style="stroke-width:0.375993" /></g></g></clipPath></defs><g text-rendering="geometricPrecision" shape-rendering="geometricPrecision" id="g208"><g clip-path="url(#clipPath3)" id="g206"><svg opacity="1" writing-mode="lr-tb" stop-color="#000000" shape-rendering="auto" glyph-orientation-horizontal="0deg" color-profile="auto" lighting-color="rgb(255, 255, 255)" color="#000000" font-weight="400" alignment-baseline="auto" font-style="normal" version="1.1" color-interpolation-filters="linearrgb" text-anchor="start" stroke-linecap="butt" color-interpolation="srgb" font-variant="normal" word-spacing="normal" fill-opacity="1" text-rendering="auto" clip-path="none" text-decoration="none" letter-spacing="normal" glyph-orientation-vertical="auto" display="inline" font-size-adjust="none" overflow="hidden" fill="#000000" font-stretch="normal" stroke-dasharray="none" id="svg1.svg10210" stroke-miterlimit="4" stop-opacity="1" color-rendering="auto" font-size="12px" pointer-events="visiblepainted" mask="none" direction="ltr" baseline-shift="baseline" enable-background="accumulate" fill-rule="nonzero" image-rendering="auto" stroke-dashoffset="0" width="33.80315" marker-end="none" clip="auto" cursor="auto" stroke="none" visibility="visible" kerning="auto" stroke-width="1" font-family="Arial, Helvetica, sans-serif" flood-opacity="1" clip-rule="nonzero" src="none" height="65.657478" unicode-bidi="normal" stroke-linejoin="miter" stroke-opacity="1" flood-color="rgb(0, 0, 0)" dominant-baseline="auto" marker-start="none" marker-mid="none" style="text-decoration:none;text-decoration-line:none"><defs id="svg1.defs10212"><clipPath clipPathUnits="userSpaceOnUse" id="clipPath1"><path d="M 0,0 H 91 V 109 H 0 Z" id="path187" /></clipPath><clipPath clipPathUnits="userSpaceOnUse" id="clipPath2"><path d="m 1321,348 h 91 v 109 h -91 z" id="path190" /></clipPath><clipPath clipPathUnits="userSpaceOnUse" id="clipPath3"><path d="m -15.0984,-15.1713 h 91 v 109 h -91 z" id="path193" /></clipPath></defs><metadata id="svg1.metadata10215" /><g id="svg1.layer1" transform="translate(-421.01829,-314.6836)"><g id="svg1.g845" transform="matrix(0.03543307,0,0,0.03543307,302.88443,205.58518)"><g id="svg1.id152"><path style="fill:#515050;stroke:none" d="m 4182,3079 h -743 c -58,0 -105,47 -105,105 v 0 1748 h 954 V 3184 c 0,-58 -48,-105 -106,-105 z m -79,317 h -584 v -79 h 584 z" id="svg1.path848" sodipodi:nodetypes="ssscccssccccc" /></g></g></g></svg><g id="g801" transform="matrix(0.35679814,0,0,0.35679814,14.482307,32.194564)"><g id="svg2.g942" transform="matrix(3.7795276,0,0,3.7795276,-606.65972,-271.91503)" style="color:#000000;font-style:normal;font-variant:normal;font-weight:400;font-stretch:normal;font-size:12px;font-family:Arial, Helvetica, sans-serif;text-decoration-line:none;letter-spacing:normal;word-spacing:normal;writing-mode:lr-tb;direction:ltr;dominant-baseline:auto;baseline-shift:baseline;text-anchor:start;clip-rule:nonzero;visibility:visible;fill:#000000;fill-opacity:1;fill-rule:nonzero;stroke:none;stroke-width:1;stroke-linecap:butt;stroke-linejoin:miter;stroke-miterlimit:4;stroke-dasharray:none;stroke-dashoffset:0;stroke-opacity:1;marker-start:none;marker-mid:none;marker-end:none;color-rendering:auto;image-rendering:auto;shape-rendering:auto;text-rendering:auto"><path sodipodi:nodetypes="cccsccccc" inkscape:connector-curvature="0" d="m 157.08567,90.033031 c 0,0 -1.18118,0.56697 -0.0236,1.2993 1.15755,0.732319 13.15829,7.843 13.15829,7.843 0,0 0.72264,0.45569 1.51191,0 0.78927,-0.45568 13.11106,-7.79576 13.11106,-7.79576 0,0 1.2993,-0.59059 0,-1.32291 -1.29928,-0.73233 -12.75671,-7.70127 -12.75671,-7.70127 0,0 -1.01581,-0.702801 -2.12611,-0.0059 z" id="svg2.path838-4-0-6-9" style="fill:#a0a0a0;fill-opacity:1;stroke:none;stroke-width:0.264583px;stroke-linecap:butt;stroke-linejoin:miter;stroke-opacity:1" /><path id="svg2.path836-8-2-6-2" d="m 158.66844,90.718111 12.23698,-7.465029 12.47322,7.370539 -12.33148,7.70126 z" inkscape:connector-curvature="0" style="fill:#f7a040;fill-opacity:1;stroke:none;stroke-width:0.264583px;stroke-linecap:butt;stroke-linejoin:miter;stroke-opacity:1" /><path sodipodi:nodetypes="csccscccccc" inkscape:connector-curvature="0" d="m 179.06139,88.061423 c 0,0 -9.61716,0.721742 -12.69076,2.058092 -3.0736,1.33635 -4.51852,2.554329 -4.51852,2.554329 l 2.21332,1.362839 c 0,0 2.77292,-1.845828 4.30972,-2.179918 1.5368,-0.33409 3.67496,0.3675 3.97564,0.53454 0.30068,0.16704 1.9043,0.74335 4.81086,2.1131 l 2.43882,-1.520105 c 0,0 -2.20497,-1.394815 -6.08037,-2.597525 5.91334,-0.33408 9.30431,-0.07516 9.30431,-0.07516 z" id="svg2.path878-3-4" style="fill:#e1f028;fill-opacity:1;stroke:none;stroke-width:0.264583px;stroke-linecap:butt;stroke-linejoin:miter;stroke-opacity:1" /></g><g id="svg2.g1173" transform="matrix(3.7795276,0,0,3.7795276,-540.19005,-269.69477)" style="color:#000000;font-style:normal;font-variant:normal;font-weight:400;font-stretch:normal;font-size:12px;font-family:Arial, Helvetica, sans-serif;text-decoration-line:none;letter-spacing:normal;word-spacing:normal;writing-mode:lr-tb;direction:ltr;dominant-baseline:auto;baseline-shift:baseline;text-anchor:start;clip-rule:nonzero;visibility:visible;fill:#000000;fill-opacity:1;fill-rule:nonzero;stroke:none;stroke-width:1;stroke-linecap:butt;stroke-linejoin:miter;stroke-miterlimit:4;stroke-dasharray:none;stroke-dashoffset:0;stroke-opacity:1;marker-start:none;marker-mid:none;marker-end:none;color-rendering:auto;image-rendering:auto;shape-rendering:auto;text-rendering:auto"><path sodipodi:nodetypes="cccsccccc" inkscape:connector-curvature="0" d="m 139.46253,82.357542 c 0,0 -1.18118,0.566965 -0.0236,1.299295 1.15755,0.732328 13.15829,7.843006 13.15829,7.843006 0,0 0.72264,0.455684 1.51191,0 0.78927,-0.455684 13.11106,-7.795761 13.11106,-7.795761 0,0 1.2993,-0.590586 0,-1.322915 -1.29929,-0.73233 -12.75671,-7.701265 -12.75671,-7.701265 0,0 -1.01581,-0.702801 -2.12611,-0.0059 z" id="svg2.path838-4-0" style="fill:#a0a0a0;fill-opacity:1;stroke:none;stroke-width:0.264583px;stroke-linecap:butt;stroke-linejoin:miter;stroke-opacity:1" /><path id="svg2.path836-8-2" d="m 141.0453,83.042625 12.23698,-7.465032 12.47322,7.370539 -12.33148,7.701264 z" inkscape:connector-curvature="0" style="fill:#a0f944;fill-opacity:1;stroke:none;stroke-width:0.264583px;stroke-linecap:butt;stroke-linejoin:miter;stroke-opacity:1" /><path sodipodi:nodetypes="ccccc" inkscape:connector-curvature="0" d="m 158.49648,78.669434 -3.11687,-1.864823 -12.38327,7.433296 2.95294,1.809228 z" id="svg2.path1005-8-6" style="fill:#40c140;fill-opacity:1;stroke:none;stroke-width:0.264583px;stroke-linecap:butt;stroke-linejoin:miter;stroke-opacity:1" /><path sodipodi:nodetypes="ccccccccc" inkscape:connector-curvature="0" d="m 158.24354,84.18493 2.74033,1.725952 2.07887,-1.277105 -2.74033,-1.606399 2.71671,-1.677268 -3.03765,-1.821877 -12.41095,7.519443 2.96392,1.828794 z" id="svg2.path1009-1-5" style="fill:#40c140;fill-opacity:1;stroke:none;stroke-width:0.264583px;stroke-linecap:butt;stroke-linejoin:miter;stroke-opacity:1" /></g><g id="svg2.g1167" transform="matrix(3.7795276,0,0,3.7795276,-558.92706,-111.91144)" style="color:#000000;font-style:normal;font-variant:normal;font-weight:400;font-stretch:normal;font-size:12px;font-family:Arial, Helvetica, sans-serif;text-decoration-line:none;letter-spacing:normal;word-spacing:normal;writing-mode:lr-tb;direction:ltr;dominant-baseline:auto;baseline-shift:baseline;text-anchor:start;clip-rule:nonzero;visibility:visible;fill:#000000;fill-opacity:1;fill-rule:nonzero;stroke:none;stroke-width:1;stroke-linecap:butt;stroke-linejoin:miter;stroke-miterlimit:4;stroke-dasharray:none;stroke-dashoffset:0;stroke-opacity:1;marker-start:none;marker-mid:none;marker-end:none;color-rendering:auto;image-rendering:auto;shape-rendering:auto;text-rendering:auto"><g id="svg2.g1149"><path sodipodi:nodetypes="cccsccccc" id="svg2.path838-1-1" d="m 144.44807,33.587578 c 0,0 -1.18118,0.566965 -0.0236,1.299295 1.15755,0.73233 13.15829,7.843007 13.15829,7.843007 0,0 0.72264,0.455684 1.51191,0 0.78927,-0.455684 13.11105,-7.795761 13.11105,-7.795761 0,0 1.2993,-0.590587 0,-1.322916 -1.29929,-0.73233 -12.7567,-7.701264 -12.7567,-7.701264 0,0 -1.01581,-0.702801 -2.12611,-0.0059 z" inkscape:connector-curvature="0" style="fill:#a0a0a0;fill-opacity:1;stroke:none;stroke-width:0.264583px;stroke-linecap:butt;stroke-linejoin:miter;stroke-opacity:1" /><path d="m 146.03084,34.272661 12.23698,-7.465031 12.47322,7.370538 -12.33148,7.701265 z" id="svg2.path836-5-8" inkscape:connector-curvature="0" style="fill:#ffffff;fill-opacity:1;stroke:none;stroke-width:0.264583px;stroke-linecap:butt;stroke-linejoin:miter;stroke-opacity:1" /></g><g id="svg2.g1127" transform="translate(11.24266,-28.318864)"><path d="m 134.78818,62.591526 12.23698,-7.465031 12.47322,7.370538 -12.33148,7.701264 z" id="svg2.path836-5-4" inkscape:connector-curvature="0" style="fill:none;stroke:none;stroke-width:0.065;stroke-linecap:butt;stroke-linejoin:miter;stroke-miterlimit:4;stroke-dasharray:none;stroke-opacity:1" /><path sodipodi:nodetypes="ccccccccccc" id="svg2.path881-0-7" d="m 143.18031,57.476389 c 0,0 2.48392,0.9754 3.45277,1.676983 0.96886,0.701582 0.90204,0.968851 0.66818,1.469982 -0.23386,0.501129 -0.50113,1.637025 -0.0334,2.305198 0.46772,0.668176 0.66817,0.668176 0.90203,1.069078 0.23386,0.400905 0.13364,1.035672 -0.13363,1.469983 -0.26727,0.434314 -0.25149,2.20387 -0.23386,2.372019 0.0176,0.382913 0.25033,1.078066 0.60954,1.561574 l -1.24504,0.797091 -12.37872,-7.606771 z" inkscape:connector-curvature="0" style="fill:#a6caf0;fill-opacity:1;stroke:none;stroke-width:0.264583px;stroke-linecap:butt;stroke-linejoin:miter;stroke-opacity:1" /><path sodipodi:nodetypes="ccccccccccc" id="svg2.path883-4-3" d="m 150.20783,67.60577 c -0.40092,-0.701582 -0.13365,-1.536798 0.0334,-2.372016 0.16704,-0.835218 0.16704,-1.77066 -0.20046,-2.104747 -0.36749,-0.334087 -0.83521,-0.601356 -1.03566,-1.169305 -0.20046,-0.567947 0.23386,-0.7684 0.33408,-1.302938 0.10023,-0.53454 0.70158,-0.835218 -0.86863,-1.904296 -1.5702,-1.069078 -4.00063,-2.069479 -4.00063,-2.069479 l 2.55523,-1.556494 12.47322,7.370537 -8.80788,5.511278 c 0,0 -0.21611,-0.07185 -0.48267,-0.40254 z" inkscape:connector-curvature="0" style="fill:#6080c0;fill-opacity:1;stroke:none;stroke-width:0.1;stroke-linecap:butt;stroke-linejoin:miter;stroke-miterlimit:4;stroke-dasharray:none;stroke-opacity:1" /><ellipse rx="1.4866868" ry="1.0669163" id="svg2.path858-3-7" style="opacity:1;fill:#ffffff;fill-opacity:0.994924;fill-rule:nonzero;stroke:none;stroke-width:0.1;stroke-linecap:butt;stroke-linejoin:round;stroke-miterlimit:4;stroke-dasharray:none;stroke-opacity:1;paint-order:normal" cx="143.75893" cy="64.535973" /><ellipse rx="1.277198" ry="0.91657722" id="svg2.path858-7-4-2" style="opacity:1;fill:#ffffff;fill-opacity:1;fill-rule:nonzero;stroke:none;stroke-width:0.1;stroke-linecap:butt;stroke-linejoin:round;stroke-miterlimit:4;stroke-dasharray:none;stroke-opacity:1;paint-order:normal" cx="153.0542" cy="61.610554" /><ellipse rx="1.0211558" ry="0.73282945" id="svg2.path858-6-8-1" style="opacity:1;fill:#ffffff;fill-opacity:1;fill-rule:nonzero;stroke:none;stroke-width:0.1;stroke-linecap:butt;stroke-linejoin:round;stroke-miterlimit:4;stroke-dasharray:none;stroke-opacity:1;paint-order:normal" cx="144.37918" cy="60.85886" /><ellipse rx="0.17135151" ry="0.1229699" id="svg2.path858-6-4-721-5" style="opacity:1;fill:#ffffff;fill-opacity:1;fill-rule:nonzero;stroke:none;stroke-width:0.0167801;stroke-linecap:butt;stroke-linejoin:round;stroke-miterlimit:4;stroke-dasharray:none;stroke-opacity:1;paint-order:normal" cx="141.09685" cy="60.34103" /><ellipse rx="0.17135151" ry="0.1229699" id="svg2.path858-6-4-6-1-6" style="opacity:1;fill:#ffffff;fill-opacity:1;fill-rule:nonzero;stroke:none;stroke-width:0.0167801;stroke-linecap:butt;stroke-linejoin:round;stroke-miterlimit:4;stroke-dasharray:none;stroke-opacity:1;paint-order:normal" cx="143.44153" cy="58.653889" /><ellipse rx="0.17135151" ry="0.1229699" id="svg2.path858-6-4-7-4-4" style="opacity:1;fill:#ffffff;fill-opacity:1;fill-rule:nonzero;stroke:none;stroke-width:0.0167801;stroke-linecap:butt;stroke-linejoin:round;stroke-miterlimit:4;stroke-dasharray:none;stroke-opacity:1;paint-order:normal" cx="145.83026" cy="60.942379" /><ellipse rx="0.17135151" ry="0.1229699" id="svg2.path858-6-4-3-0-9" style="opacity:1;fill:#ffffff;fill-opacity:1;fill-rule:nonzero;stroke:none;stroke-width:0.0167801;stroke-linecap:butt;stroke-linejoin:round;stroke-miterlimit:4;stroke-dasharray:none;stroke-opacity:1;paint-order:normal" cx="139.66635" cy="61.577152" /><ellipse rx="0.17135151" ry="0.1229699" id="svg2.path858-6-4-72-1-7" style="opacity:1;fill:#ffffff;fill-opacity:1;fill-rule:nonzero;stroke:none;stroke-width:0.0167801;stroke-linecap:butt;stroke-linejoin:round;stroke-miterlimit:4;stroke-dasharray:none;stroke-opacity:1;paint-order:normal" cx="138.43024" cy="63.899048" /><ellipse rx="0.17135151" ry="0.1229699" id="svg2.path858-6-4-1-0-0" style="opacity:1;fill:#ffffff;fill-opacity:1;fill-rule:nonzero;stroke:none;stroke-width:0.0167801;stroke-linecap:butt;stroke-linejoin:round;stroke-miterlimit:4;stroke-dasharray:none;stroke-opacity:1;paint-order:normal" cx="138.78102" cy="64.517113" /></g></g></g></g></g></svg>
