<?xml version="1.0" encoding="UTF-8" standalone="no"?>
<svg xmlns:dc="http://purl.org/dc/elements/1.1/" xmlns:cc="http://creativecommons.org/ns#"
	xmlns:rdf="http://www.w3.org/1999/02/22-rdf-syntax-ns#" xmlns:svg="http://www.w3.org/2000/svg"
	xmlns="http://www.w3.org/2000/svg"
	xmlns:sodipodi="http://sodipodi.sourceforge.net/DTD/sodipodi-0.dtd"
	xmlns:inkscape="http://www.inkscape.org/namespaces/inkscape" width="128" stroke-miterlimit="10"
	font-weight="normal" height="128" font-style="normal" font-size="12px" version="1.1" id="svg39"
	sodipodi:docname="entrepot.svg"
	style="font-style:normal;font-weight:normal;font-size:12px;font-family:Dialog;color-interpolation:auto;fill:#000000;fill-opacity:1;stroke:#000000;stroke-width:1;stroke-linecap:square;stroke-linejoin:miter;stroke-miterlimit:10;stroke-dasharray:none;stroke-dashoffset:0;stroke-opacity:1;color-rendering:auto;image-rendering:auto;shape-rendering:auto;text-rendering:auto"
	inkscape:version="0.92.3 (2405546, 2018-03-11)" viewBox="-1.4132975 0 66.614174 66.614174">
	<metadata id="metadata43">
		<rdf:RDF>
			<cc:Work rdf:about="">
				<dc:format>image/svg+xml</dc:format>
				<dc:type rdf:resource="http://purl.org/dc/dcmitype/StillImage" />
				<dc:title></dc:title>
			</cc:Work>
		</rdf:RDF>
	</metadata>
	<sodipodi:namedview pagecolor="#ffffff" bordercolor="#666666" borderopacity="1"
		objecttolerance="10" gridtolerance="10" guidetolerance="10" inkscape:pageopacity="0"
		inkscape:pageshadow="2" inkscape:window-width="1920" inkscape:window-height="1018"
		id="namedview41" showgrid="false" fit-margin-top="0" fit-margin-left="0"
		fit-margin-right="0" fit-margin-bottom="0" inkscape:zoom="1.9504132"
		inkscape:cx="-219.26778" inkscape:cy="97.639441" inkscape:window-x="-8"
		inkscape:window-y="-8" inkscape:window-maximized="1" inkscape:current-layer="g37"
		inkscape:showpageshadow="false" showborder="false" borderlayer="false" /><!--Generated
	by ySVG 2.5-->
	<defs id="genericDefs" />
	<g id="g37" transform="translate(-15.143699,-15.692901)">
		<g transform="translate(15.1437,15.6929)" id="g31"
			style="shape-rendering:geometricPrecision;text-rendering:geometricPrecision">
			<g clip-path="url(#clipPath3)" id="g29">
				<svg stop-color="rgb(0, 0, 0)" glyph-orientation-horizontal="0deg"
					color-profile="auto" lighting-color="rgb(255, 255, 255)" font-weight="400"
					alignment-baseline="auto" font-style="normal" version="1.1"
					color-interpolation-filters="linearrgb" color-interpolation="srgb"
					font-variant="normal" word-spacing="normal" clip-path="none"
					text-decoration="none" letter-spacing="normal" glyph-orientation-vertical="auto"
					display="inline" font-size-adjust="none" overflow="visible"
					font-stretch="normal" id="svg1.svg10210" stroke-miterlimit="4" stop-opacity="1"
					font-size="12" pointer-events="visiblepainted" mask="none" direction="ltr"
					baseline-shift="baseline" width="49.712597" clip="auto" cursor="auto"
					visibility="visible" kerning="auto" flood-opacity="1" src="none"
					height="66.614174" unicode-bidi="normal" flood-color="rgb(0, 0, 0)"
					dominant-baseline="auto"
					style="color:#000000;font-style:normal;font-variant:normal;font-weight:400;font-stretch:normal;font-size:12px;font-family:Arial, Helvetica, sans-serif;text-decoration:none;text-decoration-line:none;letter-spacing:normal;word-spacing:normal;writing-mode:lr-tb;direction:ltr;dominant-baseline:auto;baseline-shift:baseline;text-anchor:start;clip-rule:nonzero;display:inline;overflow:visible;visibility:visible;opacity:1;fill:#000000;fill-opacity:1;fill-rule:nonzero;stroke:none;stroke-width:1;stroke-linecap:butt;stroke-linejoin:miter;stroke-miterlimit:4;stroke-dasharray:none;stroke-dashoffset:0;stroke-opacity:1;marker-start:none;marker-mid:none;marker-end:none;color-rendering:auto;image-rendering:auto;shape-rendering:auto;text-rendering:auto;enable-background:accumulate">
					<defs id="svg1.defs10212">
						<clipPath clipPathUnits="userSpaceOnUse" id="clipPath1">
							<path d="M 0,0 H 80 V 121 H 0 Z" id="path7"
								inkscape:connector-curvature="0" />
						</clipPath>
						<clipPath clipPathUnits="userSpaceOnUse" id="clipPath2">
							<path d="m 324,205 h 80 v 121 h -80 z" id="path10"
								inkscape:connector-curvature="0" />
						</clipPath>
						<clipPath clipPathUnits="userSpaceOnUse" id="clipPath3">
							<path d="m -15.1437,-15.6929 h 80 v 121 h -80 z" id="path13"
								inkscape:connector-curvature="0" />
						</clipPath>
					</defs>
					<metadata id="svg1.metadata10215" />
					<g id="svg1.layer1" transform="translate(-434.21611,-421.29871)">
						<g id="svg1.g1665"
							transform="matrix(0.03543307,0,0,0.03543307,-37.82325,-57.614663)">
							<g id="svg1.id316">
								<path style="fill:#ffffff;stroke:none"
									d="m 14725,13846 v 1180 58 2 c -24,270 -450,310 -701,310 v 0 c -253,0 -679,-40 -702,-310 v 0 -2 -56 -1182 -53 c 0,-193 351,-277 702,-277 v 0 c 349,0 701,84 701,277 v 0 z"
									id="svg1.path1668" inkscape:connector-curvature="0" />
							</g>
						</g>
						<g id="svg1.g1670"
							transform="matrix(0.03543307,0,0,0.03543307,-37.82325,-57.614663)">
							<g id="svg1.id317">
								<path style="fill:#666666;stroke:none"
									d="m 14024,14071 c -248,0 -498,-42 -622,-137 v 0 1091 52 c 18,220 466,239 622,239 v 0 c 156,0 602,-19 623,-239 v 0 -52 -1091 c -124,95 -374,137 -623,137 z"
									id="svg1.path1673" inkscape:connector-curvature="0" />
							</g>
						</g>
						<g id="svg1.g1675"
							transform="matrix(0.03543307,0,0,0.03543307,-37.82325,-57.614663)">
							<g id="svg1.id318">
								<path style="fill:#666666;stroke:none"
									d="m 14646,13795 v 0 c 0,37 -26,68 -83,99 -58,32 -129,55 -228,73 -99,19 -196,27 -311,27 -115,0 -212,-8 -311,-27 -99,-18 -170,-41 -228,-73 -57,-31 -83,-62 -83,-99 0,-37 26,-68 83,-100 58,-31 129,-54 228,-72 99,-19 196,-27 310,-27 v 0 h 1 c 115,0 212,8 311,27 99,18 170,41 228,72 57,32 83,63 83,100 z"
									id="svg1.path1678" inkscape:connector-curvature="0" />
							</g>
						</g>
					</g>
				</svg>
			</g>
		</g>
	</g>
	<g id="g127" transform="matrix(0.30955781,0,0,0.30955781,5.454924,25.622975)">
		<g transform="matrix(3.7795276,0,0,3.7795276,-512.36437,-280.28272)" id="g942">
			<path
				style="fill:#a0a0a0;fill-opacity:1;stroke:none;stroke-width:0.26458332px;stroke-linecap:butt;stroke-linejoin:miter;stroke-opacity:1"
				d="m 157.08567,90.033031 c 0,0 -1.18118,0.56697 -0.0236,1.2993 1.15755,0.732319 13.15829,7.843 13.15829,7.843 0,0 0.72264,0.45569 1.51191,0 0.78927,-0.45568 13.11106,-7.79576 13.11106,-7.79576 0,0 1.2993,-0.59059 0,-1.32291 -1.29928,-0.73233 -12.75671,-7.70127 -12.75671,-7.70127 0,0 -1.01581,-0.702801 -2.12611,-0.0059 z"
				id="path838-4-0-6-9" inkscape:connector-curvature="0" sodipodi:nodetypes="cccsccccc" />
			<path
				style="fill:#f7a040;fill-opacity:1;stroke:none;stroke-width:0.26458332px;stroke-linecap:butt;stroke-linejoin:miter;stroke-opacity:1"
				d="m 158.66844,90.718111 12.23698,-7.465029 12.47322,7.370539 -12.33148,7.70126 z"
				id="path836-8-2-6-2" inkscape:connector-curvature="0" />
			<path
				style="fill:#e1f028;fill-opacity:1;stroke:none;stroke-width:0.26458332px;stroke-linecap:butt;stroke-linejoin:miter;stroke-opacity:1"
				d="m 179.06139,88.061423 c 0,0 -9.61716,0.721742 -12.69076,2.058092 -3.0736,1.33635 -4.51852,2.554329 -4.51852,2.554329 l 2.21332,1.362839 c 0,0 2.77292,-1.845828 4.30972,-2.179918 1.5368,-0.33409 3.67496,0.3675 3.97564,0.53454 0.30068,0.16704 1.9043,0.74335 4.81086,2.1131 l 2.43882,-1.520105 c 0,0 -2.20497,-1.394815 -6.08037,-2.597525 5.91334,-0.33408 9.30431,-0.07516 9.30431,-0.07516 z"
				id="path878-3-4" inkscape:connector-curvature="0" sodipodi:nodetypes="csccscccccc" />
		</g>
		<g transform="matrix(3.7795276,0,0,3.7795276,-445.8947,-278.06246)" id="g1173">
			<path
				style="fill:#a0a0a0;fill-opacity:1;stroke:none;stroke-width:0.26458332px;stroke-linecap:butt;stroke-linejoin:miter;stroke-opacity:1"
				d="m 139.46253,82.357542 c 0,0 -1.18118,0.566965 -0.0236,1.299295 1.15755,0.732328 13.15829,7.843006 13.15829,7.843006 0,0 0.72264,0.455684 1.51191,0 0.78927,-0.455684 13.11106,-7.795761 13.11106,-7.795761 0,0 1.2993,-0.590586 0,-1.322915 -1.29929,-0.73233 -12.75671,-7.701265 -12.75671,-7.701265 0,0 -1.01581,-0.702801 -2.12611,-0.0059 z"
				id="path838-4-0" inkscape:connector-curvature="0" sodipodi:nodetypes="cccsccccc" />
			<path
				style="fill:#a0f944;fill-opacity:1;stroke:none;stroke-width:0.26458332px;stroke-linecap:butt;stroke-linejoin:miter;stroke-opacity:1"
				d="m 141.0453,83.042625 12.23698,-7.465032 12.47322,7.370539 -12.33148,7.701264 z"
				id="path836-8-2" inkscape:connector-curvature="0" />
			<path
				style="fill:#40c140;fill-opacity:1;stroke:none;stroke-width:0.26458332px;stroke-linecap:butt;stroke-linejoin:miter;stroke-opacity:1"
				d="m 158.49648,78.669434 -3.11687,-1.864823 -12.38327,7.433296 2.95294,1.809228 z"
				id="path1005-8-6" inkscape:connector-curvature="0" sodipodi:nodetypes="ccccc" />
			<path
				style="fill:#40c140;fill-opacity:1;stroke:none;stroke-width:0.26458332px;stroke-linecap:butt;stroke-linejoin:miter;stroke-opacity:1"
				d="m 158.24354,84.18493 2.74033,1.725952 2.07887,-1.277105 -2.74033,-1.606399 2.71671,-1.677268 -3.03765,-1.821877 -12.41095,7.519443 2.96392,1.828794 z"
				id="path1009-1-5" inkscape:connector-curvature="0" sodipodi:nodetypes="ccccccccc" />
		</g>
		<g transform="matrix(3.7795276,0,0,3.7795276,-464.6317,-120.27912)" id="g1167">
			<g id="g1149">
				<path sodipodi:nodetypes="cccsccccc" inkscape:connector-curvature="0"
					id="path838-1-1"
					d="m 144.44807,33.587578 c 0,0 -1.18118,0.566965 -0.0236,1.299295 1.15755,0.73233 13.15829,7.843007 13.15829,7.843007 0,0 0.72264,0.455684 1.51191,0 0.78927,-0.455684 13.11105,-7.795761 13.11105,-7.795761 0,0 1.2993,-0.590587 0,-1.322916 -1.29929,-0.73233 -12.7567,-7.701264 -12.7567,-7.701264 0,0 -1.01581,-0.702801 -2.12611,-0.0059 z"
					style="fill:#a0a0a0;fill-opacity:1;stroke:none;stroke-width:0.26458332px;stroke-linecap:butt;stroke-linejoin:miter;stroke-opacity:1" />
				<path inkscape:connector-curvature="0" id="path836-5-8"
					d="m 146.03084,34.272661 12.23698,-7.465031 12.47322,7.370538 -12.33148,7.701265 z"
					style="fill:#ffffff;fill-opacity:1;stroke:none;stroke-width:0.26458332px;stroke-linecap:butt;stroke-linejoin:miter;stroke-opacity:1" />
			</g>
			<g id="g1127" transform="translate(11.24266,-28.318864)">
				<path inkscape:connector-curvature="0" id="path836-5-4"
					d="m 134.78818,62.591526 12.23698,-7.465031 12.47322,7.370538 -12.33148,7.701264 z"
					style="fill:none;stroke:none;stroke-width:0.065;stroke-linecap:butt;stroke-linejoin:miter;stroke-miterlimit:4;stroke-dasharray:none;stroke-opacity:1" />
				<path sodipodi:nodetypes="ccccccccccc" inkscape:connector-curvature="0"
					id="path881-0-7"
					d="m 143.18031,57.476389 c 0,0 2.48392,0.9754 3.45277,1.676983 0.96886,0.701582 0.90204,0.968851 0.66818,1.469982 -0.23386,0.501129 -0.50113,1.637025 -0.0334,2.305198 0.46772,0.668176 0.66817,0.668176 0.90203,1.069078 0.23386,0.400905 0.13364,1.035672 -0.13363,1.469983 -0.26727,0.434314 -0.25149,2.20387 -0.23386,2.372019 0.0176,0.382913 0.25033,1.078066 0.60954,1.561574 l -1.24504,0.797091 -12.37872,-7.606771 z"
					style="fill:#a6caf0;fill-opacity:1;stroke:none;stroke-width:0.26458332px;stroke-linecap:butt;stroke-linejoin:miter;stroke-opacity:1" />
				<path sodipodi:nodetypes="ccccccccccc" inkscape:connector-curvature="0"
					id="path883-4-3"
					d="m 150.20783,67.60577 c -0.40092,-0.701582 -0.13365,-1.536798 0.0334,-2.372016 0.16704,-0.835218 0.16704,-1.77066 -0.20046,-2.104747 -0.36749,-0.334087 -0.83521,-0.601356 -1.03566,-1.169305 -0.20046,-0.567947 0.23386,-0.7684 0.33408,-1.302938 0.10023,-0.53454 0.70158,-0.835218 -0.86863,-1.904296 -1.5702,-1.069078 -4.00063,-2.069479 -4.00063,-2.069479 l 2.55523,-1.556494 12.47322,7.370537 -8.80788,5.511278 c 0,0 -0.21611,-0.07185 -0.48267,-0.40254 z"
					style="fill:#6080c0;fill-opacity:1;stroke:none;stroke-width:0.1;stroke-linecap:butt;stroke-linejoin:miter;stroke-miterlimit:4;stroke-dasharray:none;stroke-opacity:1" />
				<ellipse ry="1.0669163" rx="1.4866868" cy="64.535973" cx="143.75893"
					id="path858-3-7"
					style="opacity:1;fill:#ffffff;fill-opacity:0.99492385;fill-rule:nonzero;stroke:none;stroke-width:0.1;stroke-linecap:butt;stroke-linejoin:round;stroke-miterlimit:4;stroke-dasharray:none;stroke-opacity:1;paint-order:normal" />
				<ellipse ry="0.91657722" rx="1.277198" cy="61.610554" cx="153.0542"
					id="path858-7-4-2"
					style="opacity:1;fill:#ffffff;fill-opacity:1;fill-rule:nonzero;stroke:none;stroke-width:0.1;stroke-linecap:butt;stroke-linejoin:round;stroke-miterlimit:4;stroke-dasharray:none;stroke-opacity:1;paint-order:normal" />
				<ellipse ry="0.73282945" rx="1.0211558" cy="60.85886" cx="144.37918"
					id="path858-6-8-1"
					style="opacity:1;fill:#ffffff;fill-opacity:1;fill-rule:nonzero;stroke:none;stroke-width:0.1;stroke-linecap:butt;stroke-linejoin:round;stroke-miterlimit:4;stroke-dasharray:none;stroke-opacity:1;paint-order:normal" />
				<ellipse ry="0.1229699" rx="0.17135151" cy="60.34103" cx="141.09685"
					id="path858-6-4-721-5"
					style="opacity:1;fill:#ffffff;fill-opacity:1;fill-rule:nonzero;stroke:none;stroke-width:0.01678015;stroke-linecap:butt;stroke-linejoin:round;stroke-miterlimit:4;stroke-dasharray:none;stroke-opacity:1;paint-order:normal" />
				<ellipse ry="0.1229699" rx="0.17135151" cy="58.653889" cx="143.44153"
					id="path858-6-4-6-1-6"
					style="opacity:1;fill:#ffffff;fill-opacity:1;fill-rule:nonzero;stroke:none;stroke-width:0.01678015;stroke-linecap:butt;stroke-linejoin:round;stroke-miterlimit:4;stroke-dasharray:none;stroke-opacity:1;paint-order:normal" />
				<ellipse ry="0.1229699" rx="0.17135151" cy="60.942379" cx="145.83026"
					id="path858-6-4-7-4-4"
					style="opacity:1;fill:#ffffff;fill-opacity:1;fill-rule:nonzero;stroke:none;stroke-width:0.01678015;stroke-linecap:butt;stroke-linejoin:round;stroke-miterlimit:4;stroke-dasharray:none;stroke-opacity:1;paint-order:normal" />
				<ellipse ry="0.1229699" rx="0.17135151" cy="61.577152" cx="139.66635"
					id="path858-6-4-3-0-9"
					style="opacity:1;fill:#ffffff;fill-opacity:1;fill-rule:nonzero;stroke:none;stroke-width:0.01678015;stroke-linecap:butt;stroke-linejoin:round;stroke-miterlimit:4;stroke-dasharray:none;stroke-opacity:1;paint-order:normal" />
				<ellipse ry="0.1229699" rx="0.17135151" cy="63.899048" cx="138.43024"
					id="path858-6-4-72-1-7"
					style="opacity:1;fill:#ffffff;fill-opacity:1;fill-rule:nonzero;stroke:none;stroke-width:0.01678015;stroke-linecap:butt;stroke-linejoin:round;stroke-miterlimit:4;stroke-dasharray:none;stroke-opacity:1;paint-order:normal" />
				<ellipse ry="0.1229699" rx="0.17135151" cy="64.517113" cx="138.78102"
					id="path858-6-4-1-0-0"
					style="opacity:1;fill:#ffffff;fill-opacity:1;fill-rule:nonzero;stroke:none;stroke-width:0.01678015;stroke-linecap:butt;stroke-linejoin:round;stroke-miterlimit:4;stroke-dasharray:none;stroke-opacity:1;paint-order:normal" />
			</g>
		</g>
	</g>
</svg>