<?xml version="1.0" encoding="UTF-8" standalone="no"?><!-- Created with Inkscape (http://www.inkscape.org/) -->
<svg xmlns:dc="http://purl.org/dc/elements/1.1/" xmlns:cc="http://creativecommons.org/ns#"
	xmlns:rdf="http://www.w3.org/1999/02/22-rdf-syntax-ns#" xmlns:svg="http://www.w3.org/2000/svg"
	xmlns="http://www.w3.org/2000/svg" version="1.1" width="128" height="128" id="svg10210"
	viewBox="-13.765749 0 78.377953 78.377953">
	<defs id="defs10212" />
	<metadata id="metadata10215">
		<rdf:RDF>
			<cc:Work rdf:about="">
				<dc:format>image/svg+xml</dc:format>
				<dc:type rdf:resource="http://purl.org/dc/dcmitype/StillImage" />
				<dc:title></dc:title>
			</cc:Work>
		</rdf:RDF>
	</metadata>
	<g transform="translate(-402.40734,-538.67247)" id="layer1">
		<g transform="matrix(0.03543307,0,0,0.03543307,196.22231,-612.9023)" id="g2780">
			<g id="id539">
				<path
					d="m 5819,34512 0,-1827 c 0,-103 82,-185 185,-185 l 0,0 742,0 c 103,0 185,82 185,185 l 0,0 0,1827 -1112,0 z"
					id="path2783" style="fill:#ffffff;stroke:none" />
			</g>
		</g>
		<g transform="matrix(0.03543307,0,0,0.03543307,196.22231,-612.9023)" id="g2785">
			<g id="id540">
				<path
					d="m 6746,32579 -743,0 c -58,0 -105,47 -105,105 l 0,0 0,1748 954,0 0,-1748 c 0,-58 -48,-105 -106,-105 z m -79,1641 -584,0 0,-79 584,0 0,79 z m 0,-238 -584,0 0,-80 584,0 0,80 z m 0,-1086 -584,0 0,-79 584,0 0,79 z"
					id="path2788" style="fill:#666666;stroke:none" />
			</g>
		</g>
		<g transform="matrix(0.03543307,0,0,0.03543307,196.22231,-612.9023)" id="g2790">
			<g id="id541">
				<path
					d="m 7077,34585 -2,-33 c -3,-52 -16,-160 -27,-211 l 0,0 c -13,-55 -30,-93 -83,-123 l 0,0 -19,-11 c -37,-21 -54,-30 -75,-30 l 0,0 c -12,0 -21,2 -32,7 l 0,0 -16,9 13,-11 c 43,-38 72,-96 72,-162 l 0,0 c 1,-116 -86,-209 -190,-209 l 0,0 -2,0 c -104,0 -191,93 -191,209 l 0,0 c 0,66 28,124 72,162 l 0,0 13,11 -17,-9 c -10,-5 -21,-7 -32,-7 l 0,0 c -21,0 -39,9 -75,30 l 0,0 -19,11 c -51,31 -68,68 -81,123 l 0,0 c -11,51 -23,159 -27,211 l 0,0 -2,33 720,0 z"
					id="path2793" style="fill:#ffffff;stroke:none" />
			</g>
		</g>
		<g transform="matrix(0.03543307,0,0,0.03543307,196.22231,-612.9023)" id="g2795">
			<g id="id542">
				<path
					d="m 7016,34347 c -13,-54 -26,-79 -67,-101 l 0,0 c -40,-24 -62,-37 -77,-37 l 0,0 c -6,0 -12,1 -16,4 l 0,0 c -9,8 -20,17 -32,23 l 0,0 0,0 0,0 c -2,1 -4,2 -5,3 l 0,0 c -12,8 -23,12 -34,16 l 0,0 c -21,8 -43,12 -67,12 l 0,0 c -24,0 -46,-4 -67,-12 l 0,0 c -12,-3 -22,-8 -34,-16 l 0,0 c -14,-7 -27,-17 -37,-27 l 0,0 c -4,-2 -10,-4 -16,-4 l 0,0 c -15,0 -31,10 -77,37 l 0,0 c -41,23 -55,48 -67,101 l 0,0 c -11,48 -23,155 -26,206 l 0,0 652,0 c -8,-50 -19,-157 -30,-205 z"
					id="path2798" style="fill:#515251;stroke:none" />
			</g>
		</g>
		<g transform="matrix(0.03543307,0,0,0.03543307,196.22231,-612.9023)" id="g2800">
			<g id="id543">
				<path
					d="m 6716,34197 c -89,0 -159,-79 -159,-178 l 0,0 c 0,-98 72,-176 159,-176 l 0,0 c 89,0 160,79 160,177 l 0,0 c 0,99 -71,177 -160,177 z"
					id="path2803" style="fill:#515251;stroke:none" />
			</g>
		</g>
		<g transform="matrix(0.03543307,0,0,0.03543307,196.22231,-612.9023)" id="g2805">
			<g id="id544">
				<path
					d="m 7077,34712 c -17,0 -33,-11 -39,-26 l 0,0 -10,-23 c -2,0 -5,0 -8,0 l 0,0 c -5,0 -8,0 -11,0 l 0,0 -9,23 c -7,15 -22,26 -40,26 l 0,0 c -5,0 -11,-1 -15,-3 l 0,0 -41,-17 c -10,-4 -19,-13 -23,-23 l 0,0 c -4,-11 -4,-23 0,-33 l 0,0 10,-22 -12,-12 -22,9 c -6,3 -11,4 -16,4 l 0,0 c -17,0 -33,-11 -39,-28 l 0,0 -17,-40 c -4,-11 -4,-22 0,-33 l 0,0 c 4,-10 12,-19 23,-23 l 0,0 22,-10 0,-17 -22,-9 c -11,-4 -19,-13 -23,-24 l 0,0 c -4,-10 -4,-22 0,-32 l 0,0 17,-41 c 6,-16 22,-27 39,-27 l 0,0 c 5,0 10,1 16,3 l 0,0 22,10 12,-12 -10,-22 c -4,-11 -4,-22 0,-33 l 0,0 c 4,-11 13,-19 23,-23 l 0,0 41,-17 c 5,-2 10,-3 15,-3 l 0,0 c 17,0 33,10 40,26 l 0,0 8,21 c 2,0 5,0 9,0 l 0,0 c 4,0 7,0 10,0 l 0,0 9,-22 c 6,-16 22,-26 39,-26 l 0,0 c 5,0 10,1 16,3 l 0,0 40,17 c 10,4 19,12 23,23 l 0,0 c 4,10 4,22 0,33 l 0,0 -9,22 11,12 23,-10 c 5,-2 10,-3 15,-3 l 0,0 c 17,0 33,10 40,27 l 0,0 17,41 c 4,10 4,22 0,32 l 0,0 c -5,11 -13,19 -24,24 l 0,0 -22,9 0,17 22,10 c 22,9 32,34 24,56 l 0,0 -14,41 c -7,17 -22,28 -39,28 l 0,0 0,0 c -6,0 -12,-1 -17,-4 l 0,0 -23,-9 -11,12 9,22 c 4,10 4,22 0,33 l 0,0 c -4,10 -12,19 -23,23 l 0,0 -40,17 c -6,2 -11,3 -16,3 z"
					id="path2808" style="fill:#ffffff;stroke:none" />
			</g>
		</g>
		<g transform="matrix(0.03543307,0,0,0.03543307,196.22231,-612.9023)" id="g2810">
			<g id="id545">
				<path
					d="m 7220,34520 -34,-13 c -5,-2 -10,-6 -10,-7 l 0,0 c 0,-1 1,-7 1,-12 l 0,0 0,-28 c 0,-6 -1,-12 -1,-13 l 0,0 c 0,-1 5,-4 10,-6 l 0,0 34,-14 c 5,-2 8,-8 6,-15 l 0,0 -17,-40 c -2,-6 -8,-9 -15,-7 l 0,0 -33,15 c -6,2 -11,3 -12,2 l 0,0 c -1,-1 -4,-6 -9,-11 l 0,0 -20,-20 c -4,-4 -9,-7 -9,-8 l 0,0 c -1,-1 0,-6 2,-12 l 0,0 15,-34 c 2,-5 0,-12 -8,-15 l 0,0 -40,-17 c -5,-1 -12,0 -15,7 l 0,0 -13,34 c -3,5 -6,9 -7,9 l 0,0 c -1,0 -7,-1 -13,-2 l 0,0 c 0,0 -5,-1 -13,-1 l 0,0 c -9,0 -14,1 -14,1 l 0,0 c -6,1 -12,1 -13,2 l 0,0 c -1,0 -4,-4 -6,-9 l 0,0 -14,-34 c -2,-6 -8,-8 -15,-7 l 0,0 -40,17 c -6,2 -9,9 -7,15 l 0,0 14,34 c 3,5 4,11 3,12 l 0,0 c -1,1 -6,4 -10,8 l 0,0 -20,20 c -4,4 -7,10 -8,11 l 0,0 c -2,1 -6,0 -12,-2 l 0,0 -33,-16 c -5,-2 -12,0 -15,7 l 0,0 -17,40 c -1,6 0,12 7,15 l 0,0 34,14 c 5,2 9,5 9,6 l 0,0 c 0,1 -1,8 -1,13 l 0,0 0,28 c 0,6 1,11 1,12 l 0,0 c 0,1 -4,4 -9,7 l 0,0 -34,14 c -6,3 -8,9 -7,15 l 0,0 17,40 c 2,7 9,10 15,8 l 0,0 34,-15 c 5,-2 11,-3 12,-2 l 0,0 c 1,1 4,5 8,12 l 0,0 21,19 c 4,4 10,7 11,8 l 0,0 c 1,1 0,6 -2,12 l 0,0 -17,31 c -2,6 0,12 7,15 l 0,0 40,17 c 6,2 12,0 15,-6 l 0,0 14,-34 c 2,-5 5,-10 6,-10 l 0,0 c 1,0 8,2 13,3 l 0,0 c 0,0 5,1 14,1 l 0,0 c 8,0 14,-1 14,-1 l 0,0 c 6,-1 11,-1 12,-3 l 0,0 c 1,0 4,5 7,10 l 0,0 13,34 c 2,5 9,8 15,6 l 0,0 40,-17 c 7,-2 10,-8 8,-15 l 0,0 -15,-33 c -2,-6 -3,-11 -2,-12 l 0,0 c 1,-1 5,-4 10,-9 l 0,0 22,-21 c 4,-4 7,-9 8,-10 l 0,0 c 1,-1 5,0 12,2 l 0,0 34,15 c 5,2 11,0 14,-8 l 0,0 17,-40 c -1,-3 -4,-9 -9,-12 z m -201,63 c -61,0 -110,-50 -110,-110 l 0,0 c 0,-61 49,-110 110,-110 l 0,0 c 60,0 110,49 110,110 l 0,0 c 1,60 -49,110 -110,110 z"
					id="path2813" style="fill:#525352;stroke:none" />
			</g>
		</g>
	</g>
</svg>