<?xml version="1.0" encoding="UTF-8" standalone="no"?><!-- Created with Inkscape (http://www.inkscape.org/) --><svg xmlns:dc="http://purl.org/dc/elements/1.1/" xmlns:cc="http://creativecommons.org/ns#" xmlns:rdf="http://www.w3.org/1999/02/22-rdf-syntax-ns#" xmlns:svg="http://www.w3.org/2000/svg" xmlns="http://www.w3.org/2000/svg" version="1.1" width="128" height="128" id="svg10210" viewBox="0 -13.6948815 67.535431 67.535431"><defs id="defs10212" /><metadata id="metadata10215"><rdf:RDF><cc:Work rdf:about=""><dc:format>image/svg+xml</dc:format><dc:type rdf:resource="http://purl.org/dc/dcmitype/StillImage" /><dc:title></dc:title></cc:Work></rdf:RDF></metadata><g transform="translate(-424.61516,-429.44326)" id="layer1"><g transform="matrix(0.03543307,0,0,0.03543307,-373.19584,-123.52523)" id="g1790"><g id="id341"><path d="m 22516,16440 c 0,138 87,257 214,291 l 0,0 42,8 1341,0 c 172,0 309,-148 309,-328 l 0,0 c 0,-180 -137,-329 -306,-329 l 0,0 c -8,0 -14,0 -22,0 l 0,0 c -53,-80 -135,-125 -228,-125 l 0,0 c -16,0 -29,3 -45,6 l 0,0 c -11,-199 -167,-357 -357,-357 l 0,0 c -127,0 -246,76 -310,195 l 0,0 c -45,-21 -95,-34 -143,-34 l 0,0 c -191,0 -345,164 -345,368 l 0,0 c 0,13 0,26 3,40 l 0,0 c -93,48 -153,151 -153,265 z m 79,0 c 0,-85 42,-159 111,-196 l 0,0 48,-26 -6,-54 c 0,-11 -2,-21 -2,-32 l 0,0 c 0,-159 119,-288 265,-288 l 0,0 c 37,0 74,8 109,26 l 0,0 69,34 37,-68 c 50,-96 140,-154 238,-154 l 0,0 c 145,0 267,125 278,283 l 0,0 5,90 87,-16 c 11,-2 21,-2 32,-2 l 0,0 c 63,0 123,32 162,90 l 0,0 27,39 45,-2 c 5,0 10,0 16,0 l 0,0 c 124,0 227,112 227,249 l 0,0 c 0,138 -103,249 -230,249 l 0,0 -1333,0 -32,-5 c -90,-29 -153,-117 -153,-217 z" id="path1793" style="fill:#515050;stroke:none" /></g></g></g></svg>
