<?xml version="1.0" encoding="UTF-8" standalone="no"?><!-- Created with Inkscape (http://www.inkscape.org/) --><svg xmlns:dc="http://purl.org/dc/elements/1.1/" xmlns:cc="http://creativecommons.org/ns#" xmlns:rdf="http://www.w3.org/1999/02/22-rdf-syntax-ns#" xmlns:svg="http://www.w3.org/2000/svg" xmlns="http://www.w3.org/2000/svg" version="1.1" width="128" height="128" id="svg10210" viewBox="-11.515749 0 77.598427 77.598427"><defs id="defs10212" /><metadata id="metadata10215"><rdf:RDF><cc:Work rdf:about=""><dc:format>image/svg+xml</dc:format><dc:type rdf:resource="http://purl.org/dc/dcmitype/StillImage" /><dc:title></dc:title></cc:Work></rdf:RDF></metadata><g transform="translate(-390.82059,-356.36103)" id="layer1"><g transform="matrix(0.03543307,0,0,0.03543307,80.391467,161.08938)" id="g2095"><g id="id402"><path d="m 8761,7523 0,-1827 c 0,-103 82,-185 185,-185 l 0,0 742,0 c 103,0 185,82 185,185 l 0,0 0,1827 -1112,0 z" id="path2098" style="fill:#ffffff;stroke:none" /></g></g><g transform="matrix(0.03543307,0,0,0.03543307,80.391467,161.08938)" id="g2100"><g id="id403"><path d="m 9689,5590 -743,0 c -58,0 -105,47 -105,105 l 0,0 0,1748 954,0 0,-1748 c 0,-58 -48,-105 -106,-105 z m -79,1641 -584,0 0,-79 584,0 0,79 z m 0,-238 -584,0 0,-80 584,0 0,80 z m 0,-1086 -584,0 0,-79 584,0 0,79 z" id="path2103" style="fill:#666666;stroke:none" /></g></g><g transform="matrix(0.03543307,0,0,0.03543307,80.391467,161.08938)" id="g2105"><g id="id404"><path d="m 10219,6837 c -13,-66 -71,-116 -143,-116 l 0,0 -276,0 c -37,0 -74,13 -108,39 l 0,0 c -35,-26 -72,-39 -109,-39 l 0,0 -276,0 c -77,0 -138,58 -146,132 l 0,0 c -31,24 -52,63 -52,106 l 0,0 0,586 c 0,74 58,130 132,130 l 0,0 329,0 c 18,16 42,26 69,26 l 0,0 106,0 c 26,0 50,-10 68,-26 l 0,0 356,0 c 74,0 132,-58 132,-130 l 0,0 0,-586 c 0,-56 -34,-104 -82,-122 z" id="path2108" style="fill:#ffffff;stroke:none" /></g></g><g transform="matrix(0.03543307,0,0,0.03543307,80.391467,161.08938)" id="g2110"><g id="id405"><path d="m 10169,6907 -928,0 c -29,0 -52,23 -52,52 l 0,0 0,587 c 0,29 23,50 52,50 l 0,0 372,0 c 0,16 10,27 26,27 l 0,0 106,0 c 16,0 27,-11 27,-27 l 0,0 397,0 c 30,0 53,-21 53,-50 l 0,0 0,-587 c 0,-29 -23,-52 -53,-52 z" id="path2113" style="fill:#515150;stroke:none" /></g></g><g transform="matrix(0.03543307,0,0,0.03543307,80.391467,161.08938)" id="g2115"><g id="id406"><path d="m 9692,6880 c -24,-40 -63,-79 -108,-79 l 0,0 -276,0 c -37,0 -66,29 -66,66 l 0,0 0,586 0,90 185,0 146,0 c 43,0 82,-5 106,27 l 0,0 13,5 0,0 14,-5 c 23,-32 63,-27 105,-27 l 0,0 147,0 185,0 0,-90 0,-586 c 0,-37 -29,-66 -66,-66 l 0,0 -276,0 c -45,0 -85,39 -109,79 z" id="path2118" style="fill:#515150;stroke:none" /></g></g><g transform="matrix(0.03543307,0,0,0.03543307,80.391467,161.08938)" id="g2120"><g id="id407"><path d="m 9719,6959 c 0,-47 42,-105 108,-105 l 0,0 250,0 c 8,0 13,5 13,13 l 0,0 0,623 -279,0 c -39,0 -71,18 -92,26 l 0,0 0,-557 z m -53,557 c -21,-8 -45,-26 -93,-26 l 0,0 -278,0 0,-623 c 0,-8 5,-13 13,-13 l 0,0 249,0 c 69,0 109,60 109,105 l 0,0 0,557 z" id="path2123" style="fill:#ffffff;stroke:none" /></g></g><g transform="matrix(0.03543307,0,0,0.03543307,80.391467,161.08938)" id="g2125"><g id="id408"><path d="m 10141,7146 c 16,0 27,-10 27,-26 l 0,0 0,-108 c 0,-16 -11,-26 -27,-26 l 0,0 0,160 z" id="path2128" style="fill:#ffffff;stroke:none" /></g></g><g transform="matrix(0.03543307,0,0,0.03543307,80.391467,161.08938)" id="g2130"><g id="id409"><path d="m 10141,7305 c 16,0 27,-10 27,-26 l 0,0 0,-108 c 0,-16 -11,-26 -27,-26 l 0,0 0,160 z" id="path2133" style="fill:#ffffff;stroke:none" /></g></g><g transform="matrix(0.03543307,0,0,0.03543307,80.391467,161.08938)" id="g2135"><g id="id410"><path d="m 10141,7464 c 16,0 27,-10 27,-26 l 0,0 0,-108 c 0,-16 -11,-26 -27,-26 l 0,0 0,160 z" id="path2138" style="fill:#ffffff;stroke:none" /></g></g><g transform="matrix(0.03543307,0,0,0.03543307,80.391467,161.08938)" id="g2140"><g id="id411"><path d="m 9579,7098 c -2,-19 -8,-27 -21,-35 l 0,0 c -13,-8 -21,-13 -27,-13 l 0,0 c -3,0 -3,0 -6,0 l 0,0 c -2,2 -8,5 -10,7 l 0,0 0,0 -3,0 0,0 c -3,8 -5,8 -10,11 l 0,0 c -8,3 -14,3 -22,3 l 0,0 c -8,0 -16,-3 -21,-3 l 0,0 c -2,0 -8,-3 -10,-5 l 0,0 c -6,-3 -8,-6 -14,-8 l 0,0 c -2,0 -2,0 -5,0 l 0,0 c -6,0 -12,2 -27,13 l 0,0 c -14,8 -19,17 -22,35 l 0,0 c -2,11 -7,54 -7,70 l 0,0 213,0 c 0,-16 -5,-59 -8,-75 z" id="path2143" style="fill:#515150;stroke:none" /></g></g><g transform="matrix(0.03543307,0,0,0.03543307,80.391467,161.08938)" id="g2145"><g id="id412"><path d="m 9533,6992 0,-1 c 0,11 -2,20 -7,30 -5,9 -11,16 -19,21 -9,6 -17,8 -27,8 -10,0 -18,-2 -26,-8 -9,-5 -15,-12 -20,-21 -5,-10 -7,-19 -7,-30 0,-10 2,-19 7,-29 5,-9 11,-16 20,-21 8,-5 16,-8 25,-8 l 0,0 1,0 c 10,0 18,2 27,8 8,5 14,12 19,21 5,10 7,19 7,29 l 0,0 0,1 z" id="path2148" style="fill:#515150;stroke:none" /></g></g><g transform="matrix(0.03543307,0,0,0.03543307,80.391467,161.08938)" id="g2150"><g id="id413"><path d="m 9374,7278 213,0 0,-54 -213,0 0,54 z" id="path2153" style="fill:#515150;stroke:none" /></g></g><g transform="matrix(0.03543307,0,0,0.03543307,80.391467,161.08938)" id="g2155"><g id="id414"><path d="m 9374,7384 213,0 0,-54 -213,0 0,54 z" id="path2158" style="fill:#515150;stroke:none" /></g></g><g transform="matrix(0.03543307,0,0,0.03543307,80.391467,161.08938)" id="g2160"><g id="id415"><path d="m 10002,7098 c -2,-19 -8,-27 -21,-35 l 0,0 c -13,-8 -21,-13 -27,-13 l 0,0 c -3,0 -3,0 -6,0 l 0,0 c -2,2 -8,5 -10,7 l 0,0 0,0 -3,0 0,0 c -3,8 -5,8 -10,11 l 0,0 c -8,3 -14,3 -22,3 l 0,0 c -8,0 -16,-3 -21,-3 l 0,0 c -2,0 -8,-3 -10,-5 l 0,0 c -6,-3 -8,-6 -14,-8 l 0,0 c -2,0 -2,0 -5,0 l 0,0 c -6,0 -12,2 -27,13 l 0,0 c -14,8 -19,17 -22,35 l 0,0 c -2,11 -7,54 -7,70 l 0,0 213,0 c 0,-16 -5,-59 -8,-75 z" id="path2163" style="fill:#515150;stroke:none" /></g></g><g transform="matrix(0.03543307,0,0,0.03543307,80.391467,161.08938)" id="g2165"><g id="id416"><path d="m 9956,6992 0,-1 c 0,11 -2,20 -7,30 -5,9 -11,16 -19,21 -9,6 -17,8 -27,8 -10,0 -18,-2 -26,-8 -9,-5 -15,-12 -20,-21 -5,-10 -7,-19 -7,-30 0,-10 2,-19 7,-29 5,-9 11,-16 20,-21 8,-5 16,-8 25,-8 l 0,0 1,0 c 10,0 18,2 27,8 8,5 14,12 19,21 5,10 7,19 7,29 l 0,0 0,1 z" id="path2168" style="fill:#515150;stroke:none" /></g></g><g transform="matrix(0.03543307,0,0,0.03543307,80.391467,161.08938)" id="g2170"><g id="id417"><path d="m 9797,7278 213,0 0,-54 -213,0 0,54 z" id="path2173" style="fill:#515150;stroke:none" /></g></g><g transform="matrix(0.03543307,0,0,0.03543307,80.391467,161.08938)" id="g2175"><g id="id418"><path d="m 9797,7384 213,0 0,-54 -213,0 0,54 z" id="path2178" style="fill:#515150;stroke:none" /></g></g></g></svg>
