<?xml version="1.0" encoding="UTF-8" standalone="no"?><!-- Created with Inkscape (http://www.inkscape.org/) -->
<svg xmlns:dc="http://purl.org/dc/elements/1.1/" xmlns:cc="http://creativecommons.org/ns#"
	xmlns:rdf="http://www.w3.org/1999/02/22-rdf-syntax-ns#" xmlns:svg="http://www.w3.org/2000/svg"
	xmlns="http://www.w3.org/2000/svg" xmlns:xlink="http://www.w3.org/1999/xlink" version="1.1"
	width="128" height="128" id="svg10210" viewBox="-6.253518 0 106.30977 106.30977">
	<defs id="defs10212">
		<linearGradient x1="35519" y1="20140" x2="35519" y2="19948" id="linearGradient8241"
			xlink:href="#gradient1" gradientUnits="userSpaceOnUse" />
		<linearGradient x1="35519" y1="20140" x2="35519" y2="19948" id="gradient1"
			gradientUnits="userSpaceOnUse">
			<stop id="stop396" style="stop-color:#ffffff;stop-opacity:1" offset="0" />
			<stop id="stop398" style="stop-color:#ffffff;stop-opacity:1" offset="1" />
		</linearGradient>
		<linearGradient x1="35134" y1="20206" x2="35134" y2="19948" id="linearGradient8243"
			xlink:href="#gradient2" gradientUnits="userSpaceOnUse" />
		<linearGradient x1="35134" y1="20206" x2="35134" y2="19948" id="gradient2"
			gradientUnits="userSpaceOnUse">
			<stop id="stop417" style="stop-color:#ffffff;stop-opacity:1" offset="0" />
			<stop id="stop419" style="stop-color:#ffffff;stop-opacity:1" offset="1" />
		</linearGradient>
		<linearGradient x1="35159" y1="20622" x2="35159" y2="20430" id="linearGradient8245"
			xlink:href="#gradient3" gradientUnits="userSpaceOnUse" />
		<linearGradient x1="35159" y1="20622" x2="35159" y2="20430" id="gradient3"
			gradientUnits="userSpaceOnUse">
			<stop id="stop438" style="stop-color:#ffffff;stop-opacity:1" offset="0" />
			<stop id="stop440" style="stop-color:#ffffff;stop-opacity:1" offset="1" />
		</linearGradient>
		<pattern patternUnits="userSpaceOnUse" height="259" width="193" y="20298" x="35518"
			id="pattern1">
			<g id="g459" transform="translate(-35518,-20298)">
				<path id="path461"
					d="M 35517,20297 L 35711,20297 35711,20557 35517,20557 35517,20297 Z"
					stroke="none" fill="rgb(255,255,255)" />
			</g>
		</pattern>
	</defs>
	<metadata id="metadata10215">
		<rdf:RDF>
			<cc:Work rdf:about="">
				<dc:format>image/svg+xml</dc:format>
				<dc:type rdf:resource="http://purl.org/dc/dcmitype/StillImage" />
				<dc:title></dc:title>
			</cc:Work>
		</rdf:RDF>
	</metadata>
	<g transform="translate(-616.47952,-243.23008)" id="layer1">
		<g transform="translate(614.60347,241.35403)" id="g4565">
			<path
				d="m 1.8760546,100.6816 0,-86.298514 c 0,-4.8464749 3.9084472,-8.7549221 8.7549214,-8.7549221 l 35.019687,0 c 4.924643,0 8.754922,3.9084472 8.754922,8.7549221 l 0,86.298514 -52.5295304,0 z"
				id="path4567" style="fill:#ffffff;fill-opacity:1;fill-rule:evenodd;stroke:none" />
			<path
				d="m 45.650663,9.3802732 -35.019687,0 c -2.7359127,0 -5.0028121,2.2668998 -5.0028121,5.0028128 l 0,82.546404 45.0253111,0 0,-82.546404 c 0,-2.735913 -2.18873,-5.0028128 -5.002812,-5.0028128 z m -3.752109,77.5435918 -27.515468,0 0,-3.752109 27.515468,0 0,3.752109 z m 0,-11.256328 -27.515468,0 0,-3.752109 27.515468,0 0,3.752109 z m 0,-51.278827 -27.515468,0 0,-3.752109 27.515468,0 0,3.752109 z"
				id="path4569" style="fill:#505050;fill-opacity:1;fill-rule:evenodd;stroke:none" />
			<path d="m 31.892929,61.909803 0,46.276017 56.281639,0 0,-46.276017 -56.281639,0 z"
				id="path4571" style="fill:#ffffff;fill-opacity:1;fill-rule:evenodd;stroke:none" />
			<path
				d="m 35.645038,65.661913 0,38.771797 48.777421,0 0,-38.771797 -48.777421,0 z m 46.276015,36.270387 -43.774609,0 0,-33.768981 43.774609,0 0,33.768981 z"
				id="path4573" style="fill:#505050;fill-opacity:1;fill-rule:evenodd;stroke:none" />
			<path d="m 71.915428,71.915428 0,7.504219 6.253516,0 0,-7.504219 -6.253516,0 z"
				id="path4575" style="fill:#505050;fill-opacity:1;fill-rule:evenodd;stroke:none" />
			<path d="m 45.650663,85.673162 0,2.501406 18.760546,0 0,-2.501406 -18.760546,0 z"
				id="path4577" style="fill:#505050;fill-opacity:1;fill-rule:evenodd;stroke:none" />
			<path d="m 45.650663,91.926678 0,2.501406 25.014062,0 0,-2.501406 -25.014062,0 z"
				id="path4579" style="fill:#505050;fill-opacity:1;fill-rule:evenodd;stroke:none" />









		</g>
	</g>
</svg>