<?xml version="1.0" encoding="UTF-8" standalone="no"?><!-- Created with Inkscape (http://www.inkscape.org/) --><svg xmlns:dc="http://purl.org/dc/elements/1.1/" xmlns:cc="http://creativecommons.org/ns#" xmlns:rdf="http://www.w3.org/1999/02/22-rdf-syntax-ns#" xmlns:svg="http://www.w3.org/2000/svg" xmlns="http://www.w3.org/2000/svg" version="1.1" width="128" height="128" id="svg10210" viewBox="0 -2.2189975 74.772636 74.772636"><defs id="defs10212" /><metadata id="metadata10215"><rdf:RDF><cc:Work rdf:about=""><dc:format>image/svg+xml</dc:format><dc:type rdf:resource="http://purl.org/dc/dcmitype/StillImage" /><dc:title></dc:title></cc:Work></rdf:RDF></metadata><g transform="translate(-420.67974,-408.26937)" id="layer1"><g transform="matrix(0.03543307,0,0,0.03543307,-238.0919,-336.07313)" id="g1145"><g id="id212"><path d="m 18777,22596 c -103,0 -185,-82 -185,-185 l 0,0 0,-1219 c 0,-103 82,-185 185,-185 l 0,0 1668,0 c 103,0 185,82 185,185 l 0,0 0,1219 c 0,103 -82,185 -185,185 l 0,0 -1668,0 z" id="path1148" style="fill:#ffffff;stroke:none" /></g></g><g transform="matrix(0.03543307,0,0,0.03543307,-238.0919,-336.07313)" id="g1150"><g id="id213"><path d="m 20446,21087 -1669,0 c -58,0 -105,47 -105,105 l 0,0 0,1219 c 0,59 47,106 105,106 l 0,0 1669,0 c 58,0 106,-47 106,-106 l 0,0 0,-1219 c 0,-58 -48,-105 -106,-105 z m -211,79 79,0 0,79 -79,0 0,-79 z m -160,0 80,0 0,79 -80,0 0,-79 z m 398,1245 c 0,16 -11,27 -27,27 l 0,0 -1669,0 c -16,0 -26,-11 -26,-27 l 0,0 0,-1060 1722,0 0,1060 z m 0,-1166 -80,0 0,-79 80,0 0,79 z" id="path1153" style="fill:#515150;stroke:none" /></g></g><g transform="matrix(0.03543307,0,0,0.03543307,-238.0919,-336.07313)" id="g1155"><g id="id214"><path d="m 20257,22992 c -42,0 -82,-27 -98,-66 l 0,0 -23,-56 c -6,0 -14,0 -21,0 l 0,0 c -9,0 -17,0 -25,0 l 0,0 -24,56 c -13,39 -53,66 -95,66 l 0,0 c -14,0 -29,-3 -40,-8 l 0,0 -101,-43 c -26,-10 -47,-31 -58,-58 l 0,0 c -10,-26 -10,-55 0,-82 l 0,0 24,-55 -29,-29 -56,23 c -13,6 -26,8 -39,8 l 0,0 c -43,0 -82,-26 -98,-66 l 0,0 -43,-100 c -9,-27 -9,-56 0,-82 l 0,0 c 11,-27 32,-48 59,-59 l 0,0 55,-23 0,-44 -55,-24 c -27,-10 -48,-31 -59,-58 l 0,0 c -9,-26 -9,-55 0,-82 l 0,0 43,-100 c 16,-40 55,-66 98,-66 l 0,0 c 13,0 26,2 39,7 l 0,0 56,24 29,-29 -24,-55 c -10,-27 -10,-56 0,-82 l 0,0 c 11,-27 32,-48 58,-59 l 0,0 101,-42 c 13,-5 26,-8 40,-8 l 0,0 c 42,0 82,27 98,66 l 0,0 21,53 c 5,0 13,0 21,0 l 0,0 c 9,0 17,0 25,0 l 0,0 21,-55 c 16,-40 55,-66 98,-66 l 0,0 c 13,0 26,2 39,7 l 0,0 101,43 c 26,10 48,32 58,58 l 0,0 c 11,26 11,56 0,82 l 0,0 -24,56 29,29 56,-24 c 13,-5 26,-8 40,-8 l 0,0 c 42,0 82,26 98,66 l 0,0 42,101 c 11,26 11,55 0,82 l 0,0 c -11,26 -32,47 -58,58 l 0,0 -56,24 0,43 56,24 c 55,24 79,84 58,140 l 0,0 -42,101 c -16,39 -56,66 -98,66 l 0,0 0,0 c -14,0 -29,-3 -43,-8 l 0,0 -55,-24 -29,29 24,56 c 10,26 10,55 0,82 l 0,0 c -11,26 -32,47 -59,58 l 0,0 -100,42 c -6,8 -21,11 -35,11 z" id="path1158" style="fill:#ffffff;stroke:none" /></g></g><g transform="matrix(0.03543307,0,0,0.03543307,-238.0919,-336.07313)" id="g1160"><g id="id215"><path d="m 20614,22515 -84,-34 c -13,-5 -24,-13 -24,-16 l 0,0 c 0,-2 3,-18 3,-32 l 0,0 0,-68 c 0,-16 -3,-29 -3,-32 l 0,0 c 0,-3 11,-11 24,-16 l 0,0 84,-34 c 14,-6 22,-22 16,-37 l 0,0 -42,-101 c -5,-14 -21,-22 -37,-17 l 0,0 -85,36 c -13,5 -26,8 -29,5 l 0,0 c -2,-3 -10,-13 -21,-27 l 0,0 -50,-48 c -11,-11 -24,-19 -24,-21 l 0,0 c -3,-3 0,-14 5,-29 l 0,0 35,-85 c 5,-13 0,-29 -16,-37 l 0,0 -101,-43 c -13,-4 -29,0 -37,16 l 0,0 -34,85 c -5,13 -13,24 -16,24 l 0,0 c -3,0 -19,-3 -32,-5 l 0,0 c 0,0 -13,-3 -35,-3 l 0,0 c -21,0 -35,3 -35,3 l 0,0 c -15,2 -29,2 -31,5 l 0,0 c -3,0 -11,-11 -16,-24 l 0,0 -35,-85 c -5,-13 -21,-20 -37,-16 l 0,0 -100,43 c -13,5 -21,21 -16,37 l 0,0 34,85 c 6,13 8,26 6,29 l 0,0 c -3,2 -14,10 -27,21 l 0,0 -50,51 c -11,11 -19,24 -21,27 l 0,0 c -3,2 -14,0 -29,-6 l 0,0 -77,-40 c -13,-6 -29,0 -37,16 l 0,0 -43,101 c -4,13 0,29 16,37 l 0,0 85,34 c 13,6 24,14 24,16 l 0,0 c 0,3 -3,19 -3,32 l 0,0 0,69 c 0,16 3,29 3,32 l 0,0 c 0,2 -11,10 -24,15 l 0,0 -85,37 c -13,6 -20,22 -16,38 l 0,0 43,100 c 5,14 21,22 34,17 l 0,0 85,-35 c 13,-6 26,-8 29,-6 l 0,0 c 3,3 11,13 21,28 l 0,0 50,47 c 11,11 24,19 27,22 l 0,0 c 3,2 0,15 -5,29 l 0,0 -37,79 c -6,13 0,29 15,37 l 0,0 101,42 c 13,6 29,0 37,-16 l 0,0 34,-84 c 6,-13 14,-24 16,-24 l 0,0 c 3,0 19,3 32,5 l 0,0 c 0,0 13,3 34,3 l 0,0 c 23,0 36,-3 36,-3 l 0,0 c 16,-2 29,-2 32,-5 l 0,0 c 2,0 10,11 15,24 l 0,0 35,84 c 5,14 21,22 37,16 l 0,0 100,-42 c 14,-5 22,-21 16,-37 l 0,0 -34,-85 c -5,-13 -8,-26 -5,-29 l 0,0 c 2,-2 13,-10 26,-21 l 0,0 50,-51 c 11,-11 19,-24 22,-27 l 0,0 c 2,-2 13,0 29,6 l 0,0 84,35 c 14,5 29,0 37,-17 l 0,0 43,-100 c -3,-8 -8,-24 -22,-30 z m -501,155 c -150,0 -272,-123 -272,-274 l 0,0 c 0,-150 122,-273 272,-273 l 0,0 c 152,0 274,123 274,273 l 0,0 c 0,151 -122,274 -274,274 z" id="path1163" style="fill:#535352;stroke:none" /></g></g><g transform="matrix(0.03543307,0,0,0.03543307,-238.0919,-336.07313)" id="g1165"><g id="id216"><path d="m 19104,21775 55,-205 c 3,-8 6,-19 6,-29 l 0,0 0,0 c 0,10 2,21 5,29 l 0,0 55,205 57,0 79,-292 -50,0 -54,217 c -2,11 -5,22 -5,27 l 0,0 0,0 c 0,-11 -3,-19 -5,-27 l 0,0 -56,-217 -50,0 -61,217 c -3,14 -5,22 -5,30 l 0,0 0,0 c 0,-11 -3,-19 -6,-30 l 0,0 -54,-217 -52,0 82,292 59,0 z" id="path1168" style="fill:#515050;stroke:none" /></g></g><g transform="matrix(0.03543307,0,0,0.03543307,-238.0919,-336.07313)" id="g1170"><g id="id217"><path d="m 20001,21775 55,-205 c 3,-8 6,-19 6,-29 l 0,0 0,0 c 0,10 2,21 5,29 l 0,0 55,205 60,0 79,-292 -53,0 -54,217 c -2,11 -5,22 -5,27 l 0,0 0,0 c 0,-11 -3,-19 -5,-27 l 0,0 -56,-217 -50,0 -61,217 c -3,14 -5,22 -5,30 l 0,0 0,0 c 0,-11 -3,-19 -6,-30 l 0,0 -54,-217 -52,0 82,292 59,0 z" id="path1173" style="fill:#515050;stroke:none" /></g></g><g transform="matrix(0.03543307,0,0,0.03543307,-238.0919,-336.07313)" id="g1175"><g id="id218"><path d="m 19550,21775 56,-205 c 2,-8 5,-19 5,-29 l 0,0 0,0 c 0,10 3,21 5,29 l 0,0 56,205 59,0 79,-292 -50,0 -54,217 c -2,11 -5,22 -5,27 l 0,0 0,0 c 0,-11 -3,-19 -5,-27 l 0,0 -56,-217 -50,0 -61,217 c -3,14 -5,22 -5,30 l 0,0 0,0 c 0,-11 -3,-19 -6,-30 l 0,0 -54,-217 -52,0 79,292 59,0 z" id="path1178" style="fill:#515050;stroke:none" /></g></g><g transform="matrix(0.03543307,0,0,0.03543307,-238.0919,-336.07313)" id="g1180"><g id="id219"><path d="m 18989,22041 557,0 0,-81 -557,0 0,81 z" id="path1183" style="fill:#515150;stroke:none" /></g></g><g transform="matrix(0.03543307,0,0,0.03543307,-238.0919,-336.07313)" id="g1185"><g id="id220"><path d="m 18989,22226 477,0 0,-81 -477,0 0,81 z" id="path1188" style="fill:#515150;stroke:none" /></g></g></g></svg>
