<?xml version="1.0" encoding="UTF-8" standalone="no"?><!-- Created with Inkscape (http://www.inkscape.org/) --><svg xmlns:dc="http://purl.org/dc/elements/1.1/" xmlns:cc="http://creativecommons.org/ns#" xmlns:rdf="http://www.w3.org/1999/02/22-rdf-syntax-ns#" xmlns:svg="http://www.w3.org/2000/svg" xmlns="http://www.w3.org/2000/svg" version="1.1" width="128" height="128" id="svg10210" viewBox="-5.6161425 0 75.968506 75.968506"><defs id="defs10212" /><metadata id="metadata10215"><rdf:RDF><cc:Work rdf:about=""><dc:format>image/svg+xml</dc:format><dc:type rdf:resource="http://purl.org/dc/dcmitype/StillImage" /><dc:title></dc:title></cc:Work></rdf:RDF></metadata><g transform="translate(-427.39609,-394.98065)" id="layer1"><g transform="matrix(0.03543307,0,0,0.03543307,-234.28106,45.71688)" id="g540"><g id="id91"><path d="m 18674,11869 0,-1827 c 0,-103 82,-185 185,-185 l 0,0 742,0 c 103,0 185,82 185,185 l 0,0 0,1827 -1112,0 z" id="path543" style="fill:#ffffff;stroke:none" /></g></g><g transform="matrix(0.03543307,0,0,0.03543307,-234.28106,45.71688)" id="g545"><g id="id92"><path d="m 19602,9936 -743,0 c -58,0 -105,47 -105,105 l 0,0 0,1748 954,0 0,-1748 c 0,-58 -48,-105 -106,-105 z m -79,1641 -584,0 0,-79 584,0 0,79 z m 0,-238 -584,0 0,-80 584,0 0,80 z m 0,-1086 -584,0 0,-79 584,0 0,79 z" id="path548" style="fill:#515050;stroke:none" /></g></g><g transform="matrix(0.03543307,0,0,0.03543307,-234.28106,45.71688)" id="g550"><g id="id93"><path d="m 19931,12001 c -315,0 -569,-254 -569,-570 l 0,0 c 0,-316 254,-569 569,-569 l 0,0 c 316,0 570,253 570,569 l 0,0 c 0,316 -254,570 -570,570 z" id="path553" style="fill:#ffffff;stroke:none" /></g></g><g transform="matrix(0.03543307,0,0,0.03543307,-234.28106,45.71688)" id="g555"><g id="id94"><path d="m 20422,11432 0,0 c 0,90 -21,167 -66,245 -45,78 -101,134 -179,179 -78,45 -155,66 -245,66 -90,0 -167,-21 -245,-66 -78,-45 -134,-101 -179,-179 -45,-78 -66,-155 -66,-245 0,-90 21,-167 66,-245 45,-78 101,-134 179,-179 78,-45 155,-66 245,-66 l 0,0 c 90,0 167,21 245,66 78,45 134,101 179,179 45,78 66,155 66,245 z" id="path558" style="fill:#515050;stroke:none" /></g></g><g transform="matrix(0.03543307,0,0,0.03543307,-234.28106,45.71688)" id="g560"><g id="id95"><path d="m 19734,11419 133,0 -160,-186 -159,186 186,0 z" id="path563" style="fill:#ffffff;stroke:none" /></g></g><g transform="matrix(0.03543307,0,0,0.03543307,-234.28106,45.71688)" id="g565"><g id="id96"><path d="m 20209,11445 c 0,-6 0,-8 0,-14 l 0,0 c 0,-154 -124,-278 -279,-278 l 0,0 c -55,0 -106,15 -150,44 l 0,0 52,61 c 30,-16 61,-26 98,-26 l 0,0 c 109,0 200,90 200,199 l 0,0 c 0,6 0,8 0,14 l 0,0 -134,0 160,185 159,-185 -106,0 z" id="path568" style="fill:#ffffff;stroke:none" /></g></g><g transform="matrix(0.03543307,0,0,0.03543307,-234.28106,45.71688)" id="g570"><g id="id97"><path d="m 20130,11444 -133,0 159,186 160,-186 -186,0 z" id="path573" style="fill:#ffffff;stroke:none" /></g></g><g transform="matrix(0.03543307,0,0,0.03543307,-234.28106,45.71688)" id="g575"><g id="id98"><path d="m 20030,11604 c -29,16 -61,26 -98,26 l 0,0 c -108,0 -199,-90 -199,-199 l 0,0 c 0,-5 0,-8 0,-13 l 0,0 133,0 -160,-185 -158,185 105,0 c 0,5 0,8 0,13 l 0,0 c 0,154 125,279 279,279 l 0,0 c 56,0 106,-16 151,-45 l 0,0 -53,-61 z" id="path578" style="fill:#ffffff;stroke:none" /></g></g></g></svg>
