<?xml version="1.0" encoding="UTF-8" standalone="no"?><!-- Created with Inkscape (http://www.inkscape.org/) --><svg xmlns:dc="http://purl.org/dc/elements/1.1/" xmlns:cc="http://creativecommons.org/ns#" xmlns:rdf="http://www.w3.org/1999/02/22-rdf-syntax-ns#" xmlns:svg="http://www.w3.org/2000/svg" xmlns="http://www.w3.org/2000/svg" version="1.1" width="128" height="128" id="svg10210" viewBox="-6.803148 0 71.291336 71.291336"><defs id="defs10212" /><metadata id="metadata10215"><rdf:RDF><cc:Work rdf:about=""><dc:format>image/svg+xml</dc:format><dc:type rdf:resource="http://purl.org/dc/dcmitype/StillImage" /><dc:title></dc:title></cc:Work></rdf:RDF></metadata><g transform="translate(-359.7112,-307.26176)" id="layer1"><g transform="matrix(0.03543307,0,0,0.03543307,-70.375407,95.053104)" id="g291"><g id="id50"><path d="m 12138,8001 0,-1827 c 0,-103 82,-185 185,-185 l 0,0 742,0 c 103,0 185,82 185,185 l 0,0 0,1827 -1112,0 z" id="path294" style="fill:#ffffff;stroke:none" /></g></g><g transform="matrix(0.03543307,0,0,0.03543307,-70.375407,95.053104)" id="g296"><g id="id51"><path d="m 13065,6069 -743,0 c -58,0 -105,47 -105,105 l 0,0 0,1748 954,0 0,-1748 c 0,-58 -48,-105 -106,-105 z m -79,1641 -584,0 0,-79 584,0 0,79 z m 0,-238 -584,0 0,-80 584,0 0,80 z m 0,-1086 -584,0 0,-79 584,0 0,79 z" id="path299" style="fill:#515050;stroke:none" /></g></g><g transform="matrix(0.03543307,0,0,0.03543307,-70.375407,95.053104)" id="g301"><g id="id52"><path d="m 13541,7339 53,0 0,-266 -371,0 47,-47 0,-111 -246,0 -278,289 227,241 -42,0 0,265 358,0 -45,48 0,111 243,0 279,-289 -225,-241 z" id="path304" style="fill:#ffffff;stroke:none" /></g></g><g transform="matrix(0.03543307,0,0,0.03543307,-70.375407,95.053104)" id="g306"><g id="id53"><path d="m 13515,7153 -350,0 -132,0 159,-158 -133,0 -204,211 204,213 133,0 -159,-159 132,0 350,0 0,-107 z" id="path309" style="fill:#515050;stroke:none" /></g></g><g transform="matrix(0.03543307,0,0,0.03543307,-70.375407,95.053104)" id="g311"><g id="id54"><path d="m 13011,7630 339,0 132,0 -158,159 132,0 202,-213 -202,-211 -132,0 158,158 -132,0 -339,0 0,107 z" id="path314" style="fill:#515050;stroke:none" /></g></g></g></svg>
