<?xml version="1.0" encoding="UTF-8" standalone="no"?><!-- Created with Inkscape (http://www.inkscape.org/) --><svg xmlns:dc="http://purl.org/dc/elements/1.1/" xmlns:cc="http://creativecommons.org/ns#" xmlns:rdf="http://www.w3.org/1999/02/22-rdf-syntax-ns#" xmlns:svg="http://www.w3.org/2000/svg" xmlns="http://www.w3.org/2000/svg" version="1.1" width="128" height="128" id="svg10210" viewBox="-15.927164 0 65.657478 65.657478"><defs id="defs10212" /><metadata id="metadata10215"><rdf:RDF><cc:Work rdf:about=""><dc:format>image/svg+xml</dc:format><dc:type rdf:resource="http://purl.org/dc/dcmitype/StillImage" /><dc:title></dc:title></cc:Work></rdf:RDF></metadata><g transform="translate(-421.01829,-314.6836)" id="layer1"><g transform="matrix(0.03543307,0,0,0.03543307,302.88443,205.58518)" id="g845"><g id="id152"><path d="m 4182,3079 -743,0 c -58,0 -105,47 -105,105 l 0,0 0,1748 954,0 0,-1748 c 0,-58 -48,-105 -106,-105 z m -79,1641 -584,0 0,-79 584,0 0,79 z m 0,-238 -584,0 0,-80 584,0 0,80 z m 0,-1086 -584,0 0,-79 584,0 0,79 z" id="path848" style="fill:#515050;stroke:none" /></g></g></g></svg>
