<?xml version="1.0" encoding="UTF-8" standalone="no"?><!-- Created with Inkscape (http://www.inkscape.org/) --><svg xmlns:dc="http://purl.org/dc/elements/1.1/" xmlns:cc="http://creativecommons.org/ns#" xmlns:rdf="http://www.w3.org/1999/02/22-rdf-syntax-ns#" xmlns:svg="http://www.w3.org/2000/svg" xmlns="http://www.w3.org/2000/svg" version="1.1" width="128" height="128" id="svg10210" viewBox="-8.4862215 0 44.114174 44.114174"><defs id="defs10212" /><metadata id="metadata10215"><rdf:RDF><cc:Work rdf:about=""><dc:format>image/svg+xml</dc:format><dc:type rdf:resource="http://purl.org/dc/dcmitype/StillImage" /><dc:title></dc:title></cc:Work></rdf:RDF></metadata><g transform="translate(-467.25295,-436.19467)" id="layer1"><g transform="matrix(0.03543307,0,0,0.03543307,261.06792,-540.19901)" id="g1530"><g id="id289"><path d="m 6203,28801 c -100,0 -190,-11 -244,-29 l 0,0 c -85,-29 -140,-109 -140,-199 l 0,0 0,-790 c 0,-87 55,-167 140,-198 l 0,0 c 54,-19 144,-29 244,-29 l 0,0 c 101,0 194,10 245,29 l 0,0 c 82,29 137,108 137,198 l 0,0 0,790 c 0,88 -55,167 -137,199 l 0,0 c -51,18 -144,29 -245,29 z" id="path1533" style="fill:#ffffff;stroke:none" /></g></g><g transform="matrix(0.03543307,0,0,0.03543307,261.06792,-540.19901)" id="g1535"><g id="id290"><path d="m 6508,28573 c 0,61 -40,106 -87,122 l 0,0 c -32,10 -104,26 -218,26 l 0,0 c -114,0 -186,-13 -218,-26 l 0,0 c -48,-16 -87,-64 -87,-122 l 0,0 0,-790 c 0,-61 39,-106 87,-122 l 0,0 c 32,-11 104,-26 218,-26 l 0,0 c 114,0 186,13 218,26 l 0,0 c 47,16 87,63 87,122 l 0,0 0,790 z" id="path1538" style="fill:#515150;stroke:none" /></g></g><g transform="matrix(0.03543307,0,0,0.03543307,261.06792,-540.19901)" id="g1540"><g id="id291"><path d="m 5951,28536 504,0 0,-742 -504,0 0,742 z" id="path1543" style="fill:#ffffff;stroke:none" /></g></g><g transform="matrix(0.03543307,0,0,0.03543307,261.06792,-540.19901)" id="g1545"><g id="id292"><path d="m 6296,28614 c 0,17 -11,27 -27,27 l 0,0 -133,0 c -16,0 -26,-10 -26,-27 l 0,0 0,0 c 0,-17 10,-27 26,-27 l 0,0 133,0 c 16,0 27,10 27,27 z" id="path1548" style="fill:#ffffff;stroke:none" /></g></g><g transform="matrix(0.03543307,0,0,0.03543307,261.06792,-540.19901)" id="g1550"><g id="id293"><path d="m 6269,27728 c 0,8 -5,13 -13,13 l 0,0 -107,0 c -8,0 -13,-5 -13,-13 l 0,0 0,0 c 0,-9 5,-14 13,-14 l 0,0 107,0 c 8,0 13,5 13,14 z" id="path1553" style="fill:#ffffff;stroke:none" /></g></g></g></svg>
