<?xml version="1.0" encoding="UTF-8" standalone="no"?><svg fill-opacity="1" color-rendering="auto" color-interpolation="auto" text-rendering="auto" stroke="#000000" stroke-linecap="square" width="128" stroke-miterlimit="10" shape-rendering="auto" stroke-opacity="1" fill="#000000" stroke-dasharray="none" font-weight="normal" stroke-width="1" height="128" font-family="Dialog" font-style="normal" stroke-linejoin="miter" font-size="12px" stroke-dashoffset="0" image-rendering="auto" version="1.1" id="svg1122" sodipodi:docname="application.svg" inkscape:version="1.2.2 (732a01da63, 2022-12-09)" xmlns:inkscape="http://www.inkscape.org/namespaces/inkscape" xmlns:sodipodi="http://sodipodi.sourceforge.net/DTD/sodipodi-0.dtd" xmlns="http://www.w3.org/2000/svg" xmlns:svg="http://www.w3.org/2000/svg" viewBox="0 -3.73819 42.200787 42.200787"><sodipodi:namedview id="namedview1124" pagecolor="#ffffff" bordercolor="#000000" borderopacity="0.25" inkscape:showpageshadow="2" inkscape:pageopacity="0.0" inkscape:pagecheckerboard="0" inkscape:deskcolor="#d1d1d1" showgrid="false" inkscape:zoom="17.706896" inkscape:cx="8.8101267" inkscape:cy="22.533593" inkscape:window-width="1920" inkscape:window-height="1027" inkscape:window-x="-8" inkscape:window-y="-8" inkscape:window-maximized="1" inkscape:current-layer="svg1122" /><!--Generated by ySVG 2.6--><defs id="genericDefs" /><g clip-path="url(#clipPath3)" id="g1116" transform="translate(-21.578737,-41.279528)" style="shape-rendering:geometricPrecision;text-rendering:geometricPrecision"><svg opacity="1" writing-mode="lr-tb" stop-color="#000000" shape-rendering="auto" glyph-orientation-horizontal="0deg" color-profile="auto" lighting-color="rgb(255, 255, 255)" color="#000000" font-weight="400" alignment-baseline="auto" font-style="normal" version="1.1" color-interpolation-filters="linearrgb" text-anchor="start" stroke-linecap="butt" color-interpolation="srgb" font-variant="normal" word-spacing="normal" fill-opacity="1" text-rendering="auto" clip-path="none" text-decoration="none" letter-spacing="normal" glyph-orientation-vertical="auto" display="inline" font-size-adjust="none" overflow="hidden" fill="#000000" font-stretch="normal" stroke-dasharray="none" id="svg1.svg10210" stroke-miterlimit="4" stop-opacity="1" color-rendering="auto" font-size="12px" pointer-events="visiblepainted" mask="none" direction="ltr" baseline-shift="baseline" enable-background="accumulate" fill-rule="nonzero" image-rendering="auto" stroke-dashoffset="0" width="63.779526" marker-end="none" clip="auto" cursor="auto" stroke="none" visibility="visible" kerning="auto" stroke-width="1" font-family="Arial, Helvetica, sans-serif" flood-opacity="1" clip-rule="nonzero" src="none" height="76.003937" unicode-bidi="normal" stroke-linejoin="miter" stroke-opacity="1" flood-color="rgb(0, 0, 0)" dominant-baseline="auto" marker-start="none" marker-mid="none" style="text-decoration:none;text-decoration-line:none"><defs id="svg1.defs10212"><clipPath clipPathUnits="userSpaceOnUse" id="clipPath1"><path d="M 0,0 H 94 V 116 H 0 Z" id="path1082" /></clipPath><clipPath clipPathUnits="userSpaceOnUse" id="clipPath2"><path d="m 323,161 h 94 v 116 h -94 z" id="path1085" /></clipPath><clipPath clipPathUnits="userSpaceOnUse" id="clipPath3"><path d="m -15.1102,-15.998 h 94 v 116 h -94 z" id="path1088" /></clipPath></defs><metadata id="svg1.metadata10215" /><g id="svg1.layer1" transform="translate(-423.18546,-428.43088)"><g id="svg1.g590" transform="matrix(0.03543307,0,0,0.03543307,226.42562,-47.364383)"><g id="svg1.id101" /></g><g id="svg1.g595" transform="matrix(0.03543307,0,0,0.03543307,226.42562,-47.364383)"><g id="svg1.id102" /></g><g id="svg1.g600" transform="matrix(0.03543307,0,0,0.03543307,226.42562,-47.364383)"><g id="svg1.id103"><path style="fill:#ffffff;stroke:none" d="m 6294,15573 c -74,0 -132,-58 -132,-132 v 0 -716 c 0,-74 58,-132 132,-132 v 0 h 927 c 74,0 132,58 132,132 v 0 716 c 0,74 -58,132 -132,132 v 0 z" id="svg1.path603" /></g></g><g id="svg1.g605" transform="matrix(0.03543307,0,0,0.03543307,226.42562,-47.364383)"><g id="svg1.id104"><path style="fill:#666666;stroke:none" d="m 7221,14672 h -928 c -31,0 -52,21 -52,52 v 0 716 c 0,32 21,53 52,53 v 0 h 928 c 32,0 53,-21 53,-53 v 0 -716 c 0,-31 -21,-52 -53,-52 z m 0,768 h -928 v -610 h 928 z" id="svg1.path608" /></g></g><g id="svg1.g610" transform="matrix(0.03543307,0,0,0.03543307,226.42562,-47.364383)"><g id="svg1.id105"><path style="fill:#ffffff;stroke:none" d="m 7167,14779 h 54 v -54 h -54 z" id="svg1.path613" /></g></g><g id="svg1.g615" transform="matrix(0.03543307,0,0,0.03543307,226.42562,-47.364383)"><g id="svg1.id106"><path style="fill:#ffffff;stroke:none" d="m 7061,14779 h 54 v -54 h -54 z" id="svg1.path618" /></g></g><g id="svg1.g620" transform="matrix(0.03543307,0,0,0.03543307,226.42562,-47.364383)"><g id="svg1.id107"><path style="fill:#ffffff;stroke:none" d="m 6955,14779 h 54 v -54 h -54 z" id="svg1.path623" /></g></g></g></svg></g></svg>
