<?xml version="1.0" encoding="UTF-8" standalone="no"?><!-- Created with Inkscape (http://www.inkscape.org/) -->
<svg xmlns:dc="http://purl.org/dc/elements/1.1/" xmlns:cc="http://creativecommons.org/ns#"
	xmlns:rdf="http://www.w3.org/1999/02/22-rdf-syntax-ns#" xmlns:svg="http://www.w3.org/2000/svg"
	xmlns="http://www.w3.org/2000/svg" version="1.1" width="128" height="128" id="svg10210"
	viewBox="-14.24033 0 78.377953 78.377953">
	<defs id="defs10212" />
	<metadata id="metadata10215">
		<rdf:RDF>
			<cc:Work rdf:about="">
				<dc:format>image/svg+xml</dc:format>
				<dc:type rdf:resource="http://purl.org/dc/dcmitype/StillImage" />
				<dc:title></dc:title>
			</cc:Work>
		</rdf:RDF>
	</metadata>
	<g transform="translate(-438.18128,-482.9922)" id="layer1">
		<g transform="matrix(0.03543307,0,0,0.03543307,231.99625,-572.52352)" id="g1760">
			<g id="id335">
				<path
					d="m 5819,31801 0,-1827 c 0,-103 82,-185 185,-185 l 0,0 742,0 c 103,0 185,82 185,185 l 0,0 0,1827 -1112,0 z"
					id="path1763" style="fill:#ffffff;stroke:none" />
			</g>
		</g>
		<g transform="matrix(0.03543307,0,0,0.03543307,231.99625,-572.52352)" id="g1765">
			<g id="id336">
				<path
					d="m 6746,29869 -743,0 c -58,0 -105,47 -105,105 l 0,0 0,1748 954,0 0,-1748 c 0,-58 -48,-105 -106,-105 z m -79,1641 -584,0 0,-79 584,0 0,79 z m 0,-238 -584,0 0,-80 584,0 0,80 z m 0,-1086 -584,0 0,-79 584,0 0,79 z"
					id="path1768" style="fill:#515150;stroke:none" />
			</g>
		</g>
		<g transform="matrix(0.03543307,0,0,0.03543307,231.99625,-572.52352)" id="g1770">
			<g id="id337">
				<path
					d="m 6756,32001 c -32,0 -65,-11 -90,-31 l 0,0 c -235,-181 -367,-435 -380,-739 l 0,0 c -2,-54 28,-101 74,-116 l 0,0 c 100,-32 173,-81 313,-205 l 0,0 c 22,-21 52,-31 83,-31 l 0,0 c 32,0 60,10 84,31 l 0,0 c 133,116 213,168 315,205 l 0,0 c 46,16 75,64 72,116 l 0,0 c -13,302 -145,558 -378,740 l 0,0 c -27,19 -59,30 -93,30 z"
					id="path1773" style="fill:#ffffff;stroke:none" />
			</g>
		</g>
		<g transform="matrix(0.03543307,0,0,0.03543307,231.99625,-572.52352)" id="g1775">
			<g id="id338">
				<path
					d="m 6708,30974 c -131,116 -206,166 -308,201 l 0,0 c -28,8 -41,40 -40,69 l 0,0 c 12,288 144,509 339,660 l 0,0 c 34,26 85,26 120,0 l 0,0 c 195,-151 325,-372 339,-662 l 0,0 c 1,-27 -13,-59 -40,-69 l 0,0 c -103,-35 -182,-87 -309,-199 l 0,0 c -29,-24 -73,-24 -101,0 z"
					id="path1778" style="fill:#2072b8;stroke:none" />
			</g>
		</g>
		<g transform="matrix(0.03543307,0,0,0.03543307,231.99625,-572.52352)" id="g1780">
			<g id="id339">
				<path
					d="m 6533,31464 c -1,-3 -1,-6 0,-7 l 0,0 47,-43 c 1,-1 1,-1 3,-1 l 0,0 c 1,0 3,1 4,1 l 0,0 117,126 219,-291 c 2,-1 3,-1 5,-1 l 0,0 c 2,0 2,0 3,1 l 0,0 49,40 c 1,1 1,3 1,3 l 0,0 c 0,1 0,3 -1,4 l 0,0 -278,359 -169,-191 z"
					id="path1783" style="fill:#ffffff;stroke:none" />
			</g>
		</g>
	</g>
</svg>