<?xml version="1.0" encoding="UTF-8" standalone="no"?><!-- Created with Inkscape (http://www.inkscape.org/) --><svg xmlns:dc="http://purl.org/dc/elements/1.1/" xmlns:cc="http://creativecommons.org/ns#" xmlns:rdf="http://www.w3.org/1999/02/22-rdf-syntax-ns#" xmlns:svg="http://www.w3.org/2000/svg" xmlns="http://www.w3.org/2000/svg" version="1.1" width="128" height="128" id="svg10210" viewBox="-5.6161425 0 76.889763 76.889763"><defs id="defs10212" /><metadata id="metadata10215"><rdf:RDF><cc:Work rdf:about=""><dc:format>image/svg+xml</dc:format><dc:type rdf:resource="http://purl.org/dc/dcmitype/StillImage" /><dc:title></dc:title></cc:Work></rdf:RDF></metadata><g transform="translate(-349.56555,-305.1265)" id="layer1"><g transform="matrix(0.03543307,0,0,0.03543307,243.26634,-84.63727)" id="g116"><g id="id15"><path d="m 3000,13012 0,-1827 c 0,-103 82,-185 185,-185 l 0,0 742,0 c 103,0 185,82 185,185 l 0,0 0,1827 -1112,0 z" id="path119" style="fill:#ffffff;stroke:none" /></g></g><g transform="matrix(0.03543307,0,0,0.03543307,243.26634,-84.63727)" id="g121"><g id="id16"><path d="m 3927,11079 -743,0 c -58,0 -105,47 -105,105 l 0,0 0,1748 954,0 0,-1748 c 0,-58 -48,-105 -106,-105 z m -79,1641 -584,0 0,-79 584,0 0,79 z m 0,-238 -584,0 0,-80 584,0 0,80 z m 0,-1086 -584,0 0,-79 584,0 0,79 z" id="path124" style="fill:#515050;stroke:none" /></g></g><g transform="matrix(0.03543307,0,0,0.03543307,243.26634,-84.63727)" id="g126"><g id="id17"><path d="m 4853,12588 0,-1 c 0,108 -24,199 -78,292 -54,93 -120,159 -213,213 -93,54 -184,78 -291,78 -108,0 -199,-24 -292,-78 -93,-54 -159,-120 -213,-213 -54,-93 -78,-184 -78,-291 0,-108 24,-199 78,-292 54,-93 120,-159 213,-213 93,-54 184,-78 292,-78 l 0,0 c 107,0 198,24 291,78 93,54 159,120 213,213 54,93 78,184 78,291 l 0,1 z" id="path129" style="fill:#ffffff;stroke:none" /></g></g><g transform="matrix(0.03543307,0,0,0.03543307,243.26634,-84.63727)" id="g131"><g id="id18"><path d="m 4502,12318 c -62,18 -131,29 -200,31 l 0,0 0,224 c 85,-2 167,-13 242,-34 l 0,0 c -8,-80 -21,-154 -42,-221 z" id="path134" style="fill:#2072b8;stroke:none" /></g></g><g transform="matrix(0.03543307,0,0,0.03543307,243.26634,-84.63727)" id="g136"><g id="id19"><path d="m 4097,12117 c -59,21 -112,55 -160,96 l 0,0 c 23,13 51,26 77,37 l 0,0 c 24,-50 52,-96 83,-133 z" id="path139" style="fill:#2072b8;stroke:none" /></g></g><g transform="matrix(0.03543307,0,0,0.03543307,243.26634,-84.63727)" id="g141"><g id="id20"><path d="m 4066,12271 c 56,16 117,27 181,29 l 0,0 0,-213 c -8,0 -13,0 -21,0 l 0,0 c -64,21 -121,88 -160,184 z" id="path144" style="fill:#2072b8;stroke:none" /></g></g><g transform="matrix(0.03543307,0,0,0.03543307,243.26634,-84.63727)" id="g146"><g id="id21"><path d="m 4008,12539 c 75,21 157,32 242,34 l 0,0 0,-224 c -70,-2 -138,-13 -200,-31 l 0,0 c -27,67 -40,141 -42,221 z" id="path149" style="fill:#2072b8;stroke:none" /></g></g><g transform="matrix(0.03543307,0,0,0.03543307,243.26634,-84.63727)" id="g151"><g id="id22"><path d="m 4592,12582 c 0,75 -8,147 -23,210 l 0,0 c 72,-26 138,-60 195,-104 l 0,0 c 8,-34 10,-68 10,-103 l 0,0 c 0,-33 -2,-64 -8,-93 l 0,0 c -51,34 -109,60 -176,83 l 0,0 c 2,5 2,5 2,7 z" id="path154" style="fill:#2072b8;stroke:none" /></g></g><g transform="matrix(0.03543307,0,0,0.03543307,243.26634,-84.63727)" id="g156"><g id="id23"><path d="m 3954,12581 c 0,-2 0,-5 0,-7 l 0,0 c -64,-22 -125,-51 -177,-82 l 0,0 c -5,29 -7,60 -7,92 l 0,0 c 0,42 5,83 15,120 l 0,0 c 60,40 123,72 193,93 l 0,0 c -16,-64 -24,-135 -24,-216 z" id="path159" style="fill:#2072b8;stroke:none" /></g></g><g transform="matrix(0.03543307,0,0,0.03543307,243.26634,-84.63727)" id="g161"><g id="id24"><path d="m 3900,12251 c -47,52 -85,117 -106,188 l 0,0 c 44,36 101,62 163,83 l 0,0 c 5,-80 18,-157 42,-221 l 0,0 c -37,-16 -70,-32 -99,-50 z" id="path164" style="fill:#2072b8;stroke:none" /></g></g><g transform="matrix(0.03543307,0,0,0.03543307,243.26634,-84.63727)" id="g166"><g id="id25"><path d="m 4298,12298 c 65,-2 125,-13 182,-29 l 0,0 c -40,-94 -99,-163 -163,-184 l 0,0 c -8,0 -14,0 -21,0 l 0,0 2,213 z" id="path169" style="fill:#2072b8;stroke:none" /></g></g><g transform="matrix(0.03543307,0,0,0.03543307,243.26634,-84.63727)" id="g171"><g id="id26"><path d="m 3995,12859 c -66,-18 -128,-45 -183,-76 l 0,0 c 55,127 162,228 295,276 l 0,0 c -47,-48 -85,-117 -112,-200 z" id="path174" style="fill:#2072b8;stroke:none" /></g></g><g transform="matrix(0.03543307,0,0,0.03543307,243.26634,-84.63727)" id="g176"><g id="id27"><path d="m 4450,12117 c 31,38 58,83 80,136 l 0,0 c 26,-10 53,-23 77,-38 l 0,0 c -43,-42 -97,-77 -157,-98 z" id="path179" style="fill:#2072b8;stroke:none" /></g></g><g transform="matrix(0.03543307,0,0,0.03543307,243.26634,-84.63727)" id="g181"><g id="id28"><path d="m 4755,12439 c -21,-71 -59,-136 -107,-188 l 0,0 c -29,18 -61,34 -98,50 l 0,0 c 21,67 37,141 42,221 l 0,0 c 62,-21 116,-50 163,-83 z" id="path184" style="fill:#2072b8;stroke:none" /></g></g><g transform="matrix(0.03543307,0,0,0.03543307,243.26634,-84.63727)" id="g186"><g id="id29"><path d="m 4553,12854 c -27,86 -64,155 -111,205 l 0,0 c 134,-48 244,-155 297,-289 l 0,0 c -56,37 -117,63 -186,84 z" id="path189" style="fill:#2072b8;stroke:none" /></g></g><g transform="matrix(0.03543307,0,0,0.03543307,243.26634,-84.63727)" id="g191"><g id="id30"><path d="m 4248,13089 0,-189 c -67,0 -131,-8 -192,-21 l 0,0 c 44,114 114,194 192,210 z" id="path194" style="fill:#2072b8;stroke:none" /></g></g><g transform="matrix(0.03543307,0,0,0.03543307,243.26634,-84.63727)" id="g196"><g id="id31"><path d="m 4541,12593 c -75,18 -157,31 -242,34 l 0,0 0,221 c 72,-2 143,-13 213,-31 l 0,0 c 19,-70 29,-147 29,-224 z" id="path199" style="fill:#2072b8;stroke:none" /></g></g><g transform="matrix(0.03543307,0,0,0.03543307,243.26634,-84.63727)" id="g201"><g id="id32"><path d="m 4247,12845 0,-221 c -85,-3 -167,-13 -242,-34 l 0,0 c 0,82 13,159 31,225 l 0,0 c 67,19 139,30 211,30 z" id="path204" style="fill:#2072b8;stroke:none" /></g></g><g transform="matrix(0.03543307,0,0,0.03543307,243.26634,-84.63727)" id="g206"><g id="id33"><path d="m 4299,12897 0,189 c 77,-16 150,-98 192,-215 l 0,0 c -62,15 -125,23 -192,26 z" id="path209" style="fill:#2072b8;stroke:none" /></g></g></g></svg>
